<svg width="145" height="94" viewBox="0 0 145 94" fill="none" xmlns="http://www.w3.org/2000/svg">
<path d="M10.3209 13.9298L11.1375 14.5071L11.1375 14.5071L10.3209 13.9298ZM64.0936 13.9298L63.2771 14.5071L63.281 14.5126L64.0936 13.9298ZM64.2158 80.4123L63.3993 79.835L63.3993 79.835L64.2158 80.4123ZM10.1987 80.4123L9.37832 80.9841L9.38223 80.9896L10.1987 80.4123ZM46.7397 30.306L45.8099 30.6741L45.8126 30.6808L46.7397 30.306ZM27.6748 30.306L28.602 30.6808L28.6047 30.674L27.6748 30.306ZM27.5526 64.1583L26.6163 64.5094L26.6208 64.5213L26.6255 64.5331L27.5526 64.1583ZM46.7397 64.1583L45.8098 63.7902L45.8058 63.8007L46.7397 64.1583ZM2.76621 47.0488C2.76621 33.1587 5.59421 22.3468 11.1375 14.5071L9.50444 13.3525C3.64137 21.6445 0.766211 32.9121 0.766211 47.0488H2.76621ZM11.1375 14.5071C16.6082 6.7699 25.2242 2.83094 37.2073 2.83094V0.830936C24.7482 0.830936 15.44 4.95787 9.50444 13.3525L11.1375 14.5071ZM37.2073 2.83094C49.1903 2.83094 57.8063 6.7699 63.2771 14.5071L64.9101 13.3525C58.9745 4.95787 49.6663 0.830936 37.2073 0.830936V2.83094ZM63.281 14.5126C68.9028 22.3515 71.7705 33.1611 71.7705 47.0488H73.7705C73.7705 32.9096 70.8536 21.6399 64.9062 13.347L63.281 14.5126ZM71.7705 47.0488C71.7705 61.1049 68.9414 71.9969 63.3993 79.835L65.0323 80.9896C70.8966 72.6959 73.7705 61.3456 73.7705 47.0488H71.7705ZM63.3993 79.835C57.9298 87.5703 49.2746 91.5112 37.2073 91.5112V93.5112C49.745 93.5112 59.0954 89.3861 65.0323 80.9896L63.3993 79.835ZM37.2073 91.5112C25.14 91.5112 16.4847 87.5703 11.0152 79.835L9.38223 80.9896C15.3191 89.3861 24.6695 93.5112 37.2073 93.5112V91.5112ZM11.0191 79.8405C5.55562 72.0016 2.76621 61.1073 2.76621 47.0488H0.766211C0.766211 61.3433 3.59849 72.6913 9.37834 80.9841L11.0191 79.8405ZM50.0617 47.0488C50.0617 39.6717 49.2867 33.9383 47.6668 29.9312L45.8126 30.6808C47.2887 34.3322 48.0617 39.7607 48.0617 47.0488H50.0617ZM47.6695 29.9379C46.8266 27.8086 45.5154 26.1598 43.7197 25.0548C41.9339 23.9558 39.7433 23.4399 37.2073 23.4399V25.4399C39.4782 25.4399 41.2798 25.9016 42.6715 26.7581C44.0532 27.6084 45.1048 28.8927 45.8099 30.674L47.6695 29.9379ZM37.2073 23.4399C34.6712 23.4399 32.4806 23.9558 30.6949 25.0548C28.8991 26.1598 27.5879 27.8086 26.745 29.9379L28.6047 30.674C29.3098 28.8927 30.3613 27.6084 31.743 26.7581C33.1348 25.9016 34.9363 25.4399 37.2073 25.4399V23.4399ZM26.7477 29.9312C25.1278 33.9383 24.3528 39.6717 24.3528 47.0488H26.3528C26.3528 39.7607 27.1259 34.3322 28.602 30.6808L26.7477 29.9312ZM24.3528 47.0488C24.3528 54.5846 25.0867 60.4304 26.6163 64.5094L28.489 63.8072C27.0856 60.0648 26.3528 54.5042 26.3528 47.0488H24.3528ZM26.6255 64.5331C27.4725 66.6283 28.7996 68.245 30.616 69.3256C32.4202 70.399 34.6368 70.9022 37.2073 70.9022V68.9022C34.8894 68.9022 33.0526 68.4481 31.6386 67.6068C30.2368 66.7728 29.1807 65.5176 28.4797 63.7835L26.6255 64.5331ZM37.2073 70.9022C39.7771 70.9022 41.9862 70.3993 43.7728 69.3228C45.5728 68.2382 46.8694 66.6156 47.6735 64.516L45.8058 63.8007C45.1434 65.5303 44.1181 66.7797 42.7406 67.6097C41.3497 68.4478 39.5259 68.9022 37.2073 68.9022V70.9022ZM47.6695 64.5264C49.2869 60.4404 50.0617 54.5875 50.0617 47.0488H48.0617C48.0617 54.5013 47.2885 60.0548 45.8099 63.7903L47.6695 64.5264ZM81.353 73.8129L80.7362 73.0258L80.353 73.3261V73.8129H81.353ZM100.784 57.8034L100.121 57.0553L100.121 57.0553L100.784 57.8034ZM113.494 43.9936L114.304 44.5801L114.309 44.5735L113.494 43.9936ZM116.794 24.1955L116.005 24.8094L116.015 24.8227L116.026 24.8357L116.794 24.1955ZM106.162 25.0509L106.994 25.6056L106.999 25.5979L107.004 25.59L106.162 25.0509ZM104.329 33.7279V34.7279H105.35L105.328 33.7066L104.329 33.7279ZM81.1085 33.7279L80.1091 33.6942L80.0743 34.7279H81.1085V33.7279ZM85.8747 15.7629L86.7244 16.2903L86.7284 16.2838L85.8747 15.7629ZM97.3625 5.25283L97.7846 6.1595L97.7973 6.15338L97.3625 5.25283ZM135.492 9.28578L136.205 8.58454L136.205 8.58454L135.492 9.28578ZM134.27 52.4261L133.477 51.8164L133.473 51.8219L134.27 52.4261ZM113.128 72.3464L112.558 71.5242L109.926 73.3464H113.128V72.3464ZM143.68 72.3464H144.68V71.3464H143.68V72.3464ZM143.68 91.7779V92.7779H144.68V91.7779H143.68ZM81.353 91.7779H80.353V92.7779H81.353V91.7779ZM81.9697 74.6001C89.8818 68.401 96.3761 63.0508 101.448 58.5514L100.121 57.0553C95.09 61.5181 88.63 66.8409 80.7362 73.0258L81.9697 74.6001ZM101.448 58.5514C106.546 54.0294 110.834 49.373 114.304 44.5801L112.684 43.4071C109.311 48.0651 105.126 52.6152 100.121 57.0553L101.448 58.5514ZM114.309 44.5735C117.808 39.6579 119.627 34.8958 119.627 30.306H117.627C117.627 34.3524 116.024 38.7153 112.68 43.4136L114.309 44.5735ZM119.627 30.306C119.627 27.5503 118.981 25.2577 117.562 23.5553L116.026 24.8357C117.051 26.0663 117.627 27.8474 117.627 30.306H119.627ZM117.583 23.5815C116.21 21.8159 114.173 20.9957 111.661 20.9957V22.9957C113.712 22.9957 115.097 23.642 116.005 24.8094L117.583 23.5815ZM111.661 20.9957C108.948 20.9957 106.802 22.196 105.319 24.5119L107.004 25.59C108.129 23.8322 109.649 22.9957 111.661 22.9957V20.9957ZM105.33 24.4962C103.861 26.6988 103.245 29.8327 103.329 33.7492L105.328 33.7066C105.249 29.9645 105.855 27.3138 106.994 25.6056L105.33 24.4962ZM104.329 32.7279H81.1085V34.7279H104.329V32.7279ZM82.108 33.7616C82.3482 26.6334 83.9075 20.8285 86.7244 16.2903L85.0251 15.2356C81.9758 20.1483 80.3577 26.3201 80.1091 33.6942L82.108 33.7616ZM86.7284 16.2838C89.5674 11.631 93.2523 8.26926 97.7846 6.15941L96.9405 4.34625C92.0218 6.63598 88.0482 10.281 85.0211 15.2421L86.7284 16.2838ZM97.7973 6.15338C102.374 3.94404 107.478 2.83094 113.128 2.83094V0.830936C107.208 0.830936 101.802 1.9991 96.9278 4.35228L97.7973 6.15338ZM113.128 2.83094C122.999 2.83094 130.148 5.27863 134.779 9.98702L136.205 8.58454C131.06 3.35314 123.299 0.830936 113.128 0.830936V2.83094ZM134.779 9.98702C139.459 14.7444 141.825 20.9164 141.825 28.595H143.825C143.825 20.4678 141.303 13.767 136.205 8.58454L134.779 9.98702ZM141.825 28.595C141.825 36.8247 139.061 44.5579 133.477 51.8164L135.063 53.0358C140.886 45.4661 143.825 37.3119 143.825 28.595H141.825ZM133.473 51.8219C127.922 59.1432 120.954 65.7119 112.558 71.5242L113.697 73.1686C122.248 67.2488 129.375 60.5372 135.067 53.0303L133.473 51.8219ZM113.128 73.3464H143.68V71.3464H113.128V73.3464ZM142.68 72.3464V91.7779H144.68V72.3464H142.68ZM143.68 90.7779H81.353V92.7779H143.68V90.7779ZM82.353 91.7779V73.8129H80.353V91.7779H82.353Z" fill="url(#paint0_linear)"/>
<defs>
<linearGradient id="paint0_linear" x1="73" y1="-48" x2="73" y2="93.0754" gradientUnits="userSpaceOnUse">
<stop stop-color="#00A2BC"/>
<stop offset="1" stop-color="#00A2BC" stop-opacity="0"/>
</linearGradient>
</defs>
</svg>
