<svg width="147" height="95" viewBox="0 0 147 95" fill="none" xmlns="http://www.w3.org/2000/svg">
<path d="M10.3209 13.9298L11.1375 14.5071L11.1375 14.5071L10.3209 13.9298ZM64.0936 13.9298L63.2771 14.5071L63.281 14.5126L64.0936 13.9298ZM64.2158 80.4123L63.3993 79.835L63.3993 79.835L64.2158 80.4123ZM10.1987 80.4123L9.37832 80.9841L9.38223 80.9896L10.1987 80.4123ZM46.7397 30.306L45.8099 30.6741L45.8126 30.6808L46.7397 30.306ZM27.6748 30.306L28.602 30.6808L28.6047 30.674L27.6748 30.306ZM27.5526 64.1583L26.6163 64.5094L26.6208 64.5213L26.6255 64.5331L27.5526 64.1583ZM46.7397 64.1583L45.8098 63.7902L45.8058 63.8007L46.7397 64.1583ZM2.76621 47.0488C2.76621 33.1587 5.59421 22.3468 11.1375 14.5071L9.50444 13.3525C3.64137 21.6445 0.766211 32.9121 0.766211 47.0488H2.76621ZM11.1375 14.5071C16.6082 6.7699 25.2242 2.83094 37.2073 2.83094V0.830936C24.7482 0.830936 15.44 4.95787 9.50444 13.3525L11.1375 14.5071ZM37.2073 2.83094C49.1903 2.83094 57.8063 6.7699 63.2771 14.5071L64.9101 13.3525C58.9745 4.95787 49.6663 0.830936 37.2073 0.830936V2.83094ZM63.281 14.5126C68.9028 22.3515 71.7705 33.1611 71.7705 47.0488H73.7705C73.7705 32.9096 70.8536 21.6399 64.9062 13.347L63.281 14.5126ZM71.7705 47.0488C71.7705 61.1049 68.9414 71.9969 63.3993 79.835L65.0323 80.9896C70.8966 72.6959 73.7705 61.3456 73.7705 47.0488H71.7705ZM63.3993 79.835C57.9298 87.5703 49.2746 91.5112 37.2073 91.5112V93.5112C49.745 93.5112 59.0954 89.3861 65.0323 80.9896L63.3993 79.835ZM37.2073 91.5112C25.14 91.5112 16.4847 87.5703 11.0152 79.835L9.38223 80.9896C15.3191 89.3861 24.6695 93.5112 37.2073 93.5112V91.5112ZM11.0191 79.8405C5.55562 72.0016 2.76621 61.1073 2.76621 47.0488H0.766211C0.766211 61.3433 3.59849 72.6913 9.37834 80.9841L11.0191 79.8405ZM50.0617 47.0488C50.0617 39.6717 49.2867 33.9383 47.6668 29.9312L45.8126 30.6808C47.2887 34.3322 48.0617 39.7607 48.0617 47.0488H50.0617ZM47.6695 29.9379C46.8266 27.8086 45.5154 26.1598 43.7197 25.0548C41.9339 23.9558 39.7433 23.4399 37.2073 23.4399V25.4399C39.4782 25.4399 41.2798 25.9016 42.6715 26.7581C44.0532 27.6084 45.1048 28.8927 45.8099 30.674L47.6695 29.9379ZM37.2073 23.4399C34.6712 23.4399 32.4806 23.9558 30.6949 25.0548C28.8991 26.1598 27.5879 27.8086 26.745 29.9379L28.6047 30.674C29.3098 28.8927 30.3613 27.6084 31.743 26.7581C33.1348 25.9016 34.9363 25.4399 37.2073 25.4399V23.4399ZM26.7477 29.9312C25.1278 33.9383 24.3528 39.6717 24.3528 47.0488H26.3528C26.3528 39.7607 27.1259 34.3322 28.602 30.6808L26.7477 29.9312ZM24.3528 47.0488C24.3528 54.5846 25.0867 60.4304 26.6163 64.5094L28.489 63.8072C27.0856 60.0648 26.3528 54.5042 26.3528 47.0488H24.3528ZM26.6255 64.5331C27.4725 66.6283 28.7996 68.245 30.616 69.3256C32.4202 70.399 34.6368 70.9022 37.2073 70.9022V68.9022C34.8894 68.9022 33.0526 68.4481 31.6386 67.6068C30.2368 66.7728 29.1807 65.5176 28.4797 63.7835L26.6255 64.5331ZM37.2073 70.9022C39.7771 70.9022 41.9862 70.3993 43.7728 69.3228C45.5728 68.2382 46.8694 66.6156 47.6735 64.516L45.8058 63.8007C45.1434 65.5303 44.1181 66.7797 42.7406 67.6097C41.3497 68.4478 39.5259 68.9022 37.2073 68.9022V70.9022ZM47.6695 64.5264C49.2869 60.4404 50.0617 54.5875 50.0617 47.0488H48.0617C48.0617 54.5013 47.2885 60.0548 45.8099 63.7903L47.6695 64.5264ZM83.1861 30.306L82.1867 30.2706L82.1501 31.306H83.1861V30.306ZM91.7409 9.16357L92.4135 9.90353L92.4196 9.89795L91.7409 9.16357ZM130.237 5.00841L129.79 5.90284L129.8 5.90777L129.81 5.91248L130.237 5.00841ZM140.381 13.8076L139.526 14.3275L139.532 14.3359L140.381 13.8076ZM139.77 39.594L140.541 40.2304L140.549 40.221L139.77 39.594ZM130.604 46.1934L130.288 45.2447L129.604 45.4726V46.1934H130.604ZM130.604 46.6822H129.604V47.3772L130.255 47.6195L130.604 46.6822ZM141.847 81.2678L140.991 80.7507L140.991 80.7507L141.847 81.2678ZM131.581 90.4336L132.022 91.3312L132.022 91.3312L131.581 90.4336ZM91.3742 86.4006L90.7278 87.1636L90.7335 87.1684L90.7393 87.1732L91.3742 86.4006ZM82.2084 63.6695V62.6695H81.1841L81.2087 63.6935L82.2084 63.6695ZM105.551 63.6695L106.549 63.7194L106.602 62.6695H105.551V63.6695ZM107.628 71.2465L106.871 71.9001L106.871 71.9001L107.628 71.2465ZM120.094 71.7354L119.367 71.0487L119.356 71.0597L119.346 71.071L120.094 71.7354ZM119.116 59.0255L118.516 59.8255L118.524 59.8313L118.532 59.837L119.116 59.0255ZM105.184 56.8257H104.184V57.8257H105.184V56.8257ZM105.184 37.3942V36.3942H104.184V37.3942H105.184ZM109.339 37.3942L109.365 36.3946L109.352 36.3942H109.339V37.3942ZM117.161 35.9277L117.608 36.8221L117.614 36.8188L117.621 36.8154L117.161 35.9277ZM118.627 23.5844L117.898 24.2684L117.909 24.2801L117.92 24.2915L118.627 23.5844ZM108.361 24.1955L107.529 23.6407L107.523 23.6505L108.361 24.1955ZM106.528 30.306V31.306H107.464L107.526 30.3725L106.528 30.306ZM84.1855 30.3414C84.5045 21.3281 87.2857 14.5652 92.4135 9.90351L91.0682 8.42363C85.4415 13.5388 82.5195 20.8709 82.1867 30.2706L84.1855 30.3414ZM92.4196 9.89795C97.5602 5.14674 104.784 2.70873 114.228 2.70873V0.708727C104.443 0.708727 96.676 3.24061 91.0621 8.42919L92.4196 9.89795ZM114.228 2.70873C120.387 2.70873 125.562 3.78892 129.79 5.90284L130.684 4.11399C126.113 1.82833 120.615 0.708727 114.228 0.708727V2.70873ZM129.81 5.91248C134.138 7.95843 137.36 10.7678 139.526 14.3275L141.235 13.2876C138.839 9.35178 135.299 6.29503 130.665 4.10434L129.81 5.91248ZM139.532 14.3359C141.707 17.8316 142.803 21.8011 142.803 26.273H144.803C144.803 21.457 143.617 17.1161 141.23 13.2793L139.532 14.3359ZM142.803 26.273C142.803 31.6526 141.499 35.8505 138.991 38.967L140.549 40.221C143.417 36.6566 144.803 31.9739 144.803 26.273H142.803ZM138.998 38.9576C136.408 42.097 133.503 44.1729 130.288 45.2447L130.92 47.142C134.549 45.9325 137.754 43.6089 140.541 40.2304L138.998 38.9576ZM129.604 46.1934V46.6822H131.604V46.1934H129.604ZM130.255 47.6195C135.039 49.3984 138.552 51.9586 140.877 55.2624C143.2 58.5648 144.391 62.6912 144.391 67.7024H146.391C146.391 62.3665 145.118 57.8159 142.512 54.1116C139.907 50.4086 136.027 47.6323 130.952 45.7449L130.255 47.6195ZM144.391 67.7024C144.391 72.676 143.248 77.0146 140.991 80.7507L142.703 81.7849C145.171 77.6995 146.391 72.9945 146.391 67.7024H144.391ZM140.991 80.7507C138.737 84.4823 135.466 87.4124 131.141 89.5359L132.022 91.3312C136.659 89.0551 140.232 85.8748 142.703 81.7849L140.991 80.7507ZM131.141 89.5359C126.826 91.6542 121.647 92.7333 115.572 92.7333V94.7333C121.881 94.7333 127.375 93.6126 132.022 91.3312L131.141 89.5359ZM115.572 92.7333C105.544 92.7333 97.7272 90.3278 92.0092 85.6281L90.7393 87.1732C96.9164 92.2503 105.231 94.7333 115.572 94.7333V92.7333ZM92.0206 85.6376C86.4374 80.9074 83.4481 73.6421 83.2081 63.6455L81.2087 63.6935C81.4576 74.0652 84.5789 81.9541 90.7278 87.1636L92.0206 85.6376ZM82.2084 64.6695H105.551V62.6695H82.2084V64.6695ZM104.552 63.6195C104.381 67.037 105.1 69.8495 106.871 71.9001L108.385 70.5929C107.06 69.0588 106.394 66.8198 106.549 63.7194L104.552 63.6195ZM106.871 71.9001C108.664 73.9755 111.303 74.9352 114.594 74.9352V72.9352C111.694 72.9352 109.689 72.1024 108.385 70.5929L106.871 71.9001ZM114.594 74.9352C117.179 74.9352 119.309 74.123 120.841 72.3997L119.346 71.071C118.271 72.2807 116.735 72.9352 114.594 72.9352V74.9352ZM120.821 72.422C122.417 70.7321 123.171 68.5116 123.171 65.8693H121.171C121.171 68.1153 120.541 69.8056 119.367 71.0487L120.821 72.422ZM123.171 65.8693C123.171 62.5359 122.06 59.9128 119.7 58.2139L118.532 59.837C120.246 61.0712 121.171 63.0106 121.171 65.8693H123.171ZM119.716 58.2255C117.494 56.5589 114.002 55.8257 109.461 55.8257V57.8257C113.883 57.8257 116.827 58.559 118.516 59.8255L119.716 58.2255ZM109.461 55.8257H105.184V57.8257H109.461V55.8257ZM106.184 56.8257V37.3942H104.184V56.8257H106.184ZM105.184 38.3942H109.339V36.3942H105.184V38.3942ZM109.313 38.3939C112.524 38.4784 115.305 37.9738 117.608 36.8221L116.713 35.0333C114.78 35.9999 112.346 36.473 109.365 36.3946L109.313 38.3939ZM117.621 36.8154C120.267 35.4432 121.46 32.7696 121.46 29.2061H119.46C119.46 32.3234 118.453 34.1309 116.7 35.0399L117.621 36.8154ZM121.46 29.2061C121.46 26.5374 120.816 24.3585 119.334 22.8773L117.92 24.2915C118.883 25.2545 119.46 26.8235 119.46 29.2061H121.46ZM119.357 22.9005C117.911 21.3579 115.956 20.629 113.617 20.629V22.629C115.514 22.629 116.9 23.2037 117.898 24.2684L119.357 22.9005ZM113.617 20.629C110.977 20.629 108.886 21.6066 107.529 23.6408L109.194 24.7502C110.119 23.3625 111.53 22.629 113.617 22.629V20.629ZM107.523 23.6505C106.35 25.4559 105.702 27.6684 105.531 30.2395L107.526 30.3725C107.681 28.0551 108.255 26.194 109.2 24.7405L107.523 23.6505ZM106.528 29.306H83.1861V31.306H106.528V29.306Z" fill="url(#paint0_linear)"/>
<defs>
<linearGradient id="paint0_linear" x1="78.5" y1="-48" x2="78.5" y2="93.0754" gradientUnits="userSpaceOnUse">
<stop stop-color="#00A2BC"/>
<stop offset="1" stop-color="#00A2BC" stop-opacity="0"/>
</linearGradient>
</defs>
</svg>
