<svg width="158" height="94" viewBox="0 0 158 94" fill="none" xmlns="http://www.w3.org/2000/svg">
<path d="M10.3209 13.9298L11.1375 14.5071L11.1375 14.5071L10.3209 13.9298ZM64.0936 13.9298L63.2771 14.5071L63.281 14.5126L64.0936 13.9298ZM64.2158 80.4123L63.3993 79.835L63.3993 79.835L64.2158 80.4123ZM10.1987 80.4123L9.37832 80.9841L9.38223 80.9896L10.1987 80.4123ZM46.7397 30.306L45.8099 30.6741L45.8126 30.6808L46.7397 30.306ZM27.6748 30.306L28.602 30.6808L28.6047 30.674L27.6748 30.306ZM27.5526 64.1583L26.6163 64.5094L26.6208 64.5213L26.6255 64.5331L27.5526 64.1583ZM46.7397 64.1583L45.8098 63.7902L45.8058 63.8007L46.7397 64.1583ZM2.76621 47.0488C2.76621 33.1587 5.59421 22.3468 11.1375 14.5071L9.50444 13.3525C3.64137 21.6445 0.766211 32.9121 0.766211 47.0488H2.76621ZM11.1375 14.5071C16.6082 6.7699 25.2242 2.83094 37.2073 2.83094V0.830936C24.7482 0.830936 15.44 4.95787 9.50444 13.3525L11.1375 14.5071ZM37.2073 2.83094C49.1903 2.83094 57.8063 6.7699 63.2771 14.5071L64.9101 13.3525C58.9745 4.95787 49.6663 0.830936 37.2073 0.830936V2.83094ZM63.281 14.5126C68.9028 22.3515 71.7705 33.1611 71.7705 47.0488H73.7705C73.7705 32.9096 70.8536 21.6399 64.9062 13.347L63.281 14.5126ZM71.7705 47.0488C71.7705 61.1049 68.9414 71.9969 63.3993 79.835L65.0323 80.9896C70.8966 72.6959 73.7705 61.3456 73.7705 47.0488H71.7705ZM63.3993 79.835C57.9298 87.5703 49.2746 91.5112 37.2073 91.5112V93.5112C49.745 93.5112 59.0954 89.3861 65.0323 80.9896L63.3993 79.835ZM37.2073 91.5112C25.14 91.5112 16.4847 87.5703 11.0152 79.835L9.38223 80.9896C15.3191 89.3861 24.6695 93.5112 37.2073 93.5112V91.5112ZM11.0191 79.8405C5.55562 72.0016 2.76621 61.1073 2.76621 47.0488H0.766211C0.766211 61.3433 3.59849 72.6913 9.37834 80.9841L11.0191 79.8405ZM50.0617 47.0488C50.0617 39.6717 49.2867 33.9383 47.6668 29.9312L45.8126 30.6808C47.2887 34.3322 48.0617 39.7607 48.0617 47.0488H50.0617ZM47.6695 29.9379C46.8266 27.8086 45.5154 26.1598 43.7197 25.0548C41.9339 23.9558 39.7433 23.4399 37.2073 23.4399V25.4399C39.4782 25.4399 41.2798 25.9016 42.6715 26.7581C44.0532 27.6084 45.1048 28.8927 45.8099 30.674L47.6695 29.9379ZM37.2073 23.4399C34.6712 23.4399 32.4806 23.9558 30.6949 25.0548C28.8991 26.1598 27.5879 27.8086 26.745 29.9379L28.6047 30.674C29.3098 28.8927 30.3613 27.6084 31.743 26.7581C33.1348 25.9016 34.9363 25.4399 37.2073 25.4399V23.4399ZM26.7477 29.9312C25.1278 33.9383 24.3528 39.6717 24.3528 47.0488H26.3528C26.3528 39.7607 27.1259 34.3322 28.602 30.6808L26.7477 29.9312ZM24.3528 47.0488C24.3528 54.5846 25.0867 60.4304 26.6163 64.5094L28.489 63.8072C27.0856 60.0648 26.3528 54.5042 26.3528 47.0488H24.3528ZM26.6255 64.5331C27.4725 66.6283 28.7996 68.245 30.616 69.3256C32.4202 70.399 34.6368 70.9022 37.2073 70.9022V68.9022C34.8894 68.9022 33.0526 68.4481 31.6386 67.6068C30.2368 66.7728 29.1807 65.5176 28.4797 63.7835L26.6255 64.5331ZM37.2073 70.9022C39.7771 70.9022 41.9862 70.3993 43.7728 69.3228C45.5728 68.2382 46.8694 66.6156 47.6735 64.516L45.8058 63.8007C45.1434 65.5303 44.1181 66.7797 42.7406 67.6097C41.3497 68.4478 39.5259 68.9022 37.2073 68.9022V70.9022ZM47.6695 64.5264C49.2869 60.4404 50.0617 54.5875 50.0617 47.0488H48.0617C48.0617 54.5013 47.2885 60.0548 45.8099 63.7903L47.6695 64.5264ZM83.5527 78.3347H82.5527V79.3347H83.5527V78.3347ZM83.5527 58.5366L82.7339 57.9627L82.5527 58.2211V58.5366H83.5527ZM121.071 5.00841V4.00841H120.551L120.252 4.43445L121.071 5.00841ZM147.347 5.00841H148.347V4.00841H147.347V5.00841ZM147.347 57.5589H146.347V58.5589H147.347V57.5589ZM156.757 57.5589H157.757V56.5589H156.757V57.5589ZM156.757 78.3347V79.3347H157.757V78.3347H156.757ZM147.347 78.3347V77.3347H146.347V78.3347H147.347ZM147.347 93V94H148.347V93H147.347ZM123.149 93H122.149V94H123.149V93ZM123.149 78.3347H124.149V77.3347H123.149V78.3347ZM124.982 32.0169H125.982V28.6876L124.148 31.4659L124.982 32.0169ZM108.117 57.5589L107.283 57.0079L106.258 58.5589H108.117V57.5589ZM124.982 57.5589V58.5589H125.982V57.5589H124.982ZM84.5527 78.3347V58.5366H82.5527V78.3347H84.5527ZM84.3716 59.1106L121.89 5.58238L120.252 4.43445L82.7339 57.9627L84.3716 59.1106ZM121.071 6.00841H147.347V4.00841H121.071V6.00841ZM146.347 5.00841V57.5589H148.347V5.00841H146.347ZM147.347 58.5589H156.757V56.5589H147.347V58.5589ZM155.757 57.5589V78.3347H157.757V57.5589H155.757ZM156.757 77.3347H147.347V79.3347H156.757V77.3347ZM146.347 78.3347V93H148.347V78.3347H146.347ZM147.347 92H123.149V94H147.347V92ZM124.149 93V78.3347H122.149V93H124.149ZM123.149 77.3347H83.5527V79.3347H123.149V77.3347ZM124.148 31.4659L107.283 57.0079L108.952 58.11L125.817 32.568L124.148 31.4659ZM108.117 58.5589H124.982V56.5589H108.117V58.5589ZM125.982 57.5589V32.0169H123.982V57.5589H125.982Z" fill="url(#paint0_linear)"/>
<defs>
<linearGradient id="paint0_linear" x1="83" y1="-48" x2="83" y2="93.0754" gradientUnits="userSpaceOnUse">
<stop stop-color="#00A2BC"/>
<stop offset="1" stop-color="#00A2BC" stop-opacity="0"/>
</linearGradient>
</defs>
</svg>
