<svg width="74" height="10" viewBox="0 0 74 10" fill="none" xmlns="http://www.w3.org/2000/svg">
<path d="M72.0354 0C68.3629 0 66.4337 1.73016 64.8829 3.1211C63.5116 4.34963 62.5202 5.23894 60.3513 5.23894C58.1823 5.23894 57.1922 4.35094 55.8222 3.1211C54.2702 1.73016 52.3409 0 48.6671 0C44.9959 0 43.068 1.73147 41.5173 3.1211C40.1473 4.34963 39.1584 5.23894 36.9908 5.23894C34.8232 5.23894 33.8331 4.35094 32.4631 3.1211C30.9124 1.73016 28.9831 0 25.3119 0C21.6407 0 19.7128 1.73147 18.1621 3.12241C16.7934 4.35094 15.8033 5.23894 13.637 5.23894C11.472 5.23894 10.4818 4.35094 9.11313 3.12241C7.56372 1.73147 5.63579 0 1.9646 0C0.878832 0 0 0.878832 0 1.9646C0 3.05037 0.878832 3.9292 1.9646 3.9292C4.12959 3.9292 5.11975 4.8172 6.48843 6.04573C8.03784 7.43667 9.96577 9.16814 13.637 9.16814C17.3081 9.16814 19.2361 7.43667 20.7868 6.04573C22.1555 4.8172 23.1456 3.9292 25.3119 3.9292C27.4795 3.9292 28.4697 4.8172 29.841 6.04704C31.3917 7.43798 33.321 9.16814 36.9921 9.16814C40.6633 9.16814 42.5926 7.43667 44.142 6.04573C45.512 4.8172 46.5008 3.9292 48.6671 3.9292C50.836 3.9292 51.8275 4.8172 53.1988 6.04704C54.7495 7.43798 56.6788 9.16814 60.3513 9.16814C64.0251 9.16814 65.9543 7.43667 67.5063 6.04704C68.8763 4.81851 69.8665 3.9292 72.0354 3.9292C73.1199 3.9292 74 3.05037 74 1.9646C74 0.878832 73.1199 0 72.0354 0Z" fill="#38B4DB"/>
</svg>
