<svg width="150" height="132" viewBox="0 0 150 132" fill="none" xmlns="http://www.w3.org/2000/svg">
<path fill-rule="evenodd" clip-rule="evenodd" d="M77.2251 0.00682893C97.8582 -0.280668 117.458 8.52087 130.879 24.2612C144.933 40.7428 153.711 62.5093 148.465 83.5581C143.324 104.19 124.951 117.78 105.485 126.158C87.222 134.019 67.3065 133.78 48.8284 126.445C28.1677 118.243 6.084 106.419 1.03146 84.6935C-4.03899 62.891 10.4594 42.3435 25.406 25.7308C38.9964 10.6255 56.955 0.289269 77.2251 0.00682893Z" fill="#91D5EA"/>
<path d="M90.4378 73.2574C91.2784 73.2574 91.9597 72.5761 91.9597 71.7355C91.9597 70.895 91.2784 70.2136 90.4378 70.2136C89.5973 70.2136 88.9159 70.895 88.9159 71.7355C88.9159 72.5761 89.5973 73.2574 90.4378 73.2574Z" fill="white"/>
<path d="M69.8763 76.5396C70.7169 76.5396 71.3983 75.8582 71.3983 75.0177C71.3983 74.1772 70.7169 73.4958 69.8763 73.4958C69.0358 73.4958 68.3544 74.1772 68.3544 75.0177C68.3544 75.8582 69.0358 76.5396 69.8763 76.5396Z" fill="white"/>
<path d="M83.398 85.7078C84.2385 85.7078 84.9199 85.0264 84.9199 84.1859C84.9199 83.3453 84.2385 82.6639 83.398 82.6639C82.5575 82.6639 81.8761 83.3453 81.8761 84.1859C81.8761 85.0264 82.5575 85.7078 83.398 85.7078Z" fill="white"/>
<path d="M80.1302 98.593C80.9708 98.593 81.6522 97.9116 81.6522 97.071C81.6522 96.2305 80.9708 95.5491 80.1302 95.5491C79.2897 95.5491 78.6083 96.2305 78.6083 97.071C78.6083 97.9116 79.2897 98.593 80.1302 98.593Z" fill="white"/>
<path d="M103.602 81.4511C104.443 81.4511 105.124 80.7697 105.124 79.9292C105.124 79.0887 104.443 78.4073 103.602 78.4073C102.761 78.4073 102.08 79.0887 102.08 79.9292C102.08 80.7697 102.761 81.4511 103.602 81.4511Z" fill="white"/>
<path d="M65.9471 93.5662C66.7877 93.5662 67.4691 92.8848 67.4691 92.0443C67.4691 91.2037 66.7877 90.5223 65.9471 90.5223C65.1066 90.5223 64.4252 91.2037 64.4252 92.0443C64.4252 92.8848 65.1066 93.5662 65.9471 93.5662Z" fill="white"/>
<path d="M45.2036 87.2414C46.0441 87.2414 46.7255 86.56 46.7255 85.7195C46.7255 84.879 46.0441 84.1976 45.2036 84.1976C44.363 84.1976 43.6816 84.879 43.6816 85.7195C43.6816 86.56 44.363 87.2414 45.2036 87.2414Z" fill="white"/>
<path d="M53.722 76.5396C54.5625 76.5396 55.2439 75.8582 55.2439 75.0177C55.2439 74.1772 54.5625 73.4958 53.722 73.4958C52.8815 73.4958 52.2001 74.1772 52.2001 75.0177C52.2001 75.8582 52.8815 76.5396 53.722 76.5396Z" fill="white"/>
<path d="M102.446 62.3068C103.382 62.3068 104.142 61.5474 104.142 60.6107C104.142 59.6739 103.382 58.9146 102.446 58.9146C101.509 58.9146 100.749 59.6739 100.749 60.6107C100.749 61.5474 101.509 62.3068 102.446 62.3068Z" fill="white"/>
<path d="M76.9056 62.6342C77.8424 62.6342 78.6017 61.8748 78.6017 60.938C78.6017 60.0013 77.8424 59.2419 76.9056 59.2419C75.9689 59.2419 75.2095 60.0013 75.2095 60.938C75.2095 61.8748 75.9689 62.6342 76.9056 62.6342Z" fill="white"/>
<path d="M63.7874 59.4894C64.9165 59.4894 65.8319 58.5741 65.8319 57.4449C65.8319 56.3158 64.9165 55.4005 63.7874 55.4005C62.6582 55.4005 61.7429 56.3158 61.7429 57.4449C61.7429 58.5741 62.6582 59.4894 63.7874 59.4894Z" fill="white"/>
<path d="M87.9153 58.3291C89.2361 58.3291 90.3068 57.2584 90.3068 55.9375C90.3068 54.6167 89.2361 53.546 87.9153 53.546C86.5944 53.546 85.5237 54.6167 85.5237 55.9375C85.5237 57.2584 86.5944 58.3291 87.9153 58.3291Z" fill="white"/>
<path d="M48.6966 59.7384C50.0174 59.7384 51.0882 58.6676 51.0882 57.3468C51.0882 56.0259 50.0174 54.9552 48.6966 54.9552C47.3758 54.9552 46.305 56.0259 46.305 57.3468C46.305 58.6676 47.3758 59.7384 48.6966 59.7384Z" fill="white"/>
<path d="M110.035 39C106.363 39 104.434 40.7302 102.883 42.1211C101.512 43.3496 100.52 44.2389 98.3513 44.2389C96.1823 44.2389 95.1922 43.3509 93.8222 42.1211C92.2702 40.7302 90.3409 39 86.6671 39C82.9959 39 81.068 40.7315 79.5173 42.1211C78.1473 43.3496 77.1584 44.2389 74.9908 44.2389C72.8232 44.2389 71.8331 43.3509 70.4631 42.1211C68.9124 40.7302 66.9831 39 63.3119 39C59.6407 39 57.7128 40.7315 56.1621 42.1224C54.7934 43.3509 53.8033 44.2389 51.637 44.2389C49.472 44.2389 48.4818 43.3509 47.1131 42.1224C45.5637 40.7315 43.6358 39 39.9646 39C38.8788 39 38 39.8788 38 40.9646C38 42.0504 38.8788 42.9292 39.9646 42.9292C42.1296 42.9292 43.1198 43.8172 44.4884 45.0457C46.0378 46.4367 47.9658 48.1681 51.637 48.1681C55.3081 48.1681 57.2361 46.4367 58.7868 45.0457C60.1555 43.8172 61.1456 42.9292 63.3119 42.9292C65.4795 42.9292 66.4697 43.8172 67.841 45.047C69.3917 46.438 71.321 48.1681 74.9921 48.1681C78.6633 48.1681 80.5926 46.4367 82.142 45.0457C83.512 43.8172 84.5008 42.9292 86.6671 42.9292C88.836 42.9292 89.8275 43.8172 91.1988 45.047C92.7495 46.438 94.6788 48.1681 98.3513 48.1681C102.025 48.1681 103.954 46.4367 105.506 45.047C106.876 43.8185 107.866 42.9292 110.035 42.9292C111.12 42.9292 112 42.0504 112 40.9646C112 39.8788 111.12 39 110.035 39Z" fill="#38B4DB"/>
</svg>
