<svg width="150" height="146" viewBox="0 0 150 146" fill="none" xmlns="http://www.w3.org/2000/svg">
<path fill-rule="evenodd" clip-rule="evenodd" d="M75.4939 0.0876221C98.2385 1.15473 117.298 15.3784 131.209 33.3812C144.796 50.9649 153.905 72.8556 148.34 94.3598C142.928 115.271 123.968 128.516 104.278 137.448C85.2622 146.074 64.0283 149.564 44.8498 141.305C24.6686 132.615 9.63849 115.251 3.67298 94.1262C-2.70606 71.5371 -1.44852 46.4874 12.8039 27.826C27.3873 8.73134 51.474 -1.03931 75.4939 0.0876221Z" fill="#91D5EA"/>
<path d="M90.3648 51.1792C90.189 50.9943 89.9774 50.8472 89.743 50.7466C89.5086 50.646 89.2562 50.5942 89.0011 50.5942C88.746 50.5942 88.4936 50.646 88.2592 50.7466C88.0247 50.8472 87.8132 50.9943 87.6374 51.1792C86.801 52.0883 67.1733 74.5979 67.1733 86.1981C67.1733 91.9848 69.4721 97.5345 73.5639 101.626C77.6557 105.718 83.2053 108.017 88.992 108.017C94.7787 108.017 100.328 105.718 104.42 101.626C108.512 97.5345 110.811 91.9848 110.811 86.1981C110.82 74.5615 91.192 52.0883 90.3648 51.1792ZM89.0011 104.389C84.1789 104.389 79.5541 102.474 76.1443 99.064C72.7345 95.6542 70.8189 91.0294 70.8189 86.2072C70.8189 78.3525 82.8919 62.4249 89.0011 55.1793C95.1194 62.4522 107.183 78.3434 107.183 86.2072C107.174 91.0247 105.253 95.6415 101.842 99.0437C98.431 102.446 93.8095 104.355 88.992 104.353L89.0011 104.389Z" fill="white"/>
<path d="M102.474 84.3436C101.992 84.3436 101.529 84.5351 101.188 84.8761C100.847 85.2171 100.656 85.6796 100.656 86.1618C100.653 89.2553 99.4241 92.2216 97.2375 94.41C95.0509 96.5983 92.0855 97.83 88.992 97.8348C88.5098 97.8348 88.0473 98.0263 87.7063 98.3673C87.3653 98.7083 87.1738 99.1708 87.1738 99.653C87.1738 100.135 87.3653 100.598 87.7063 100.939C88.0473 101.28 88.5098 101.471 88.992 101.471C93.05 101.466 96.9403 99.8516 99.8089 96.9813C102.677 94.111 104.29 90.2198 104.292 86.1618C104.292 85.6796 104.101 85.2171 103.76 84.8761C103.419 84.5351 102.956 84.3436 102.474 84.3436Z" fill="#38B4DB"/>
<path d="M55.7367 38.6244C55.5602 38.4279 55.3444 38.2707 55.1032 38.1632C54.862 38.0556 54.6008 38 54.3367 38C54.0726 38 53.8114 38.0556 53.5702 38.1632C53.329 38.2707 53.1132 38.4279 52.9367 38.6244C51.5094 40.3426 39 55.6247 39 63.5249C39 67.5924 40.6158 71.4934 43.492 74.3696C46.3682 77.2458 50.2692 78.8616 54.3367 78.8616C58.4042 78.8616 62.3052 77.2458 65.1814 74.3696C68.0576 71.4934 69.6734 67.5924 69.6734 63.5249C69.6734 55.6247 57.164 40.3426 55.7367 38.6244ZM54.3367 75.2252C51.2351 75.2203 48.2619 73.9861 46.0687 71.7929C43.8755 69.5997 42.6413 66.6265 42.6364 63.5249C42.6364 58.5612 50.1184 48.07 54.3367 42.6881C58.5459 48.0337 66.037 58.5612 66.037 63.5249C66.0321 66.6265 64.7979 69.5997 62.6047 71.7929C60.4115 73.9861 57.4383 75.2203 54.3367 75.2252Z" fill="white"/>
</svg>
