<svg width="134" height="144" viewBox="0 0 134 144" fill="none" xmlns="http://www.w3.org/2000/svg">
<path fill-rule="evenodd" clip-rule="evenodd" d="M63.6772 143.875C85.1223 145.152 106.553 136.64 120.075 119.908C133.714 103.031 136.413 80.4592 132.133 59.1684C127.691 37.0734 117.304 15.163 97.0491 5.37225C76.7832 -4.42372 52.6992 0.135437 33.1688 11.3321C15.306 21.5727 4.5193 40.165 0.93281 60.4749C-2.42391 79.4837 3.50344 98.2439 15.0994 113.657C27.1712 129.703 43.6621 142.683 63.6772 143.875Z" fill="#91D5EA"/>
<path d="M106.651 101.232H104.087L73.8973 70.6736C72.2386 68.9966 69.9915 68.0548 67.6488 68.0548C65.3061 68.0548 63.059 68.9966 61.4003 70.6736L31.2541 101.232H28.3491C27.726 101.232 27.1286 101.483 26.688 101.929C26.2475 102.376 26 102.982 26 103.613C26 104.245 26.2475 104.85 26.688 105.297C27.1286 105.743 27.726 105.994 28.3491 105.994H32.0527C32.1596 106.002 32.2669 106.002 32.3738 105.994H102.955H103.12H103.28H106.651C107.274 105.994 107.871 105.743 108.312 105.297C108.753 104.85 109 104.245 109 103.613C109 102.982 108.753 102.376 108.312 101.929C107.871 101.483 107.274 101.232 106.651 101.232ZM37.8901 101.232L64.7203 74.035C65.1054 73.6434 65.5631 73.3326 66.067 73.1206C66.5708 72.9086 67.111 72.7994 67.6566 72.7994C68.2022 72.7994 68.7424 72.9086 69.2462 73.1206C69.7501 73.3326 70.2078 73.6434 70.5929 74.035L97.4505 101.232H37.8901Z" fill="white"/>
<path d="M62.4843 88.5522C62.7581 88.8297 62.9446 89.1833 63.0202 89.5682C63.0958 89.9532 63.0571 90.3522 62.9089 90.7148C62.7608 91.0774 62.5099 91.3873 62.188 91.6054C61.866 91.8235 61.4875 91.9399 61.1003 91.9399C60.7131 91.9399 60.3346 91.8235 60.0127 91.6054C59.6908 91.3873 59.4399 91.0774 59.2917 90.7148C59.1436 90.3522 59.1049 89.9532 59.1804 89.5682C59.256 89.1833 59.4425 88.8297 59.7163 88.5522C60.0834 88.1802 60.5813 87.9712 61.1003 87.9712C61.6194 87.9712 62.1172 88.1802 62.4843 88.5522ZM68.584 82.3691C68.8579 82.6466 69.0444 83.0002 69.1199 83.3851C69.1955 83.77 69.1568 84.169 69.0086 84.5317C68.8605 84.8943 68.6096 85.2042 68.2877 85.4223C67.9657 85.6404 67.5872 85.7568 67.2001 85.7568C66.8129 85.7568 66.4344 85.6404 66.1124 85.4223C65.7905 85.2042 65.5396 84.8943 65.3915 84.5317C65.2433 84.169 65.2046 83.77 65.2802 83.3851C65.3557 83.0002 65.5422 82.6466 65.8161 82.3691C66.1837 81.9976 66.6818 81.7894 67.2009 81.7901C67.7199 81.7909 68.2175 82.0005 68.584 82.3731V82.3691ZM56.3415 94.779C56.6154 95.0565 56.8019 95.41 56.8774 95.795C56.953 96.1799 56.9143 96.5789 56.7661 96.9415C56.618 97.3042 56.3671 97.6141 56.0452 97.8322C55.7232 98.0502 55.3447 98.1666 54.9575 98.1666C54.5704 98.1666 54.1919 98.0502 53.8699 97.8322C53.548 97.6141 53.2971 97.3042 53.149 96.9415C53.0008 96.5789 52.9621 96.1799 53.0377 95.795C53.1132 95.41 53.2997 95.0565 53.5736 94.779C53.9407 94.407 54.4385 94.198 54.9575 94.198C55.4766 94.198 55.9744 94.407 56.3415 94.779ZM60.2801 53.6839C60.2801 53.2914 60.3949 52.9078 60.61 52.5815C60.8251 52.2552 61.1309 52.0008 61.4885 51.8506C61.8462 51.7005 62.2398 51.6612 62.6196 51.7377C62.9993 51.8143 63.3481 52.0033 63.6219 52.2808C63.8956 52.5583 64.0821 52.9119 64.1576 53.2968C64.2331 53.6817 64.1944 54.0807 64.0462 54.4433C63.898 54.8059 63.6471 55.1158 63.3252 55.3338C63.0033 55.5518 62.6248 55.6682 62.2377 55.6682C61.7185 55.6682 61.2206 55.4592 60.8535 55.087C60.4864 54.7149 60.2801 54.2102 60.2801 53.6839ZM60.2801 62.4903C60.2801 62.0978 60.3949 61.7142 60.61 61.3879C60.8251 61.0615 61.1309 60.8072 61.4885 60.657C61.8462 60.5068 62.2398 60.4675 62.6196 60.5441C62.9993 60.6207 63.3481 60.8096 63.6219 61.0872C63.8956 61.3647 64.0821 61.7182 64.1576 62.1032C64.2331 62.4881 64.1944 62.8871 64.0462 63.2496C63.898 63.6122 63.6471 63.9221 63.3252 64.1402C63.0033 64.3582 62.6248 64.4746 62.2377 64.4746C61.7185 64.4746 61.2206 64.2655 60.8535 63.8934C60.4864 63.5213 60.2801 63.0166 60.2801 62.4903ZM67.7188 49.7153C67.7188 49.3228 67.8336 48.9392 68.0487 48.6129C68.2638 48.2865 68.5695 48.0322 68.9272 47.882C69.2849 47.7318 69.6785 47.6925 70.0582 47.7691C70.438 47.8457 70.7868 48.0347 71.0605 48.3122C71.3343 48.5897 71.5207 48.9432 71.5963 49.3282C71.6718 49.7131 71.633 50.1121 71.4849 50.4746C71.3367 50.8372 71.0858 51.1471 70.7639 51.3652C70.442 51.5832 70.0635 51.6996 69.6763 51.6996C69.1572 51.6996 68.6593 51.4905 68.2921 51.1184C67.925 50.7463 67.7188 50.2416 67.7188 49.7153ZM67.7188 40.9843C67.7188 40.5919 67.8336 40.2082 68.0487 39.8819C68.2638 39.5556 68.5695 39.3012 68.9272 39.151C69.2849 39.0009 69.6785 38.9616 70.0582 39.0381C70.438 39.1147 70.7868 39.3037 71.0605 39.5812C71.3343 39.8587 71.5207 40.2123 71.5963 40.5972C71.6718 40.9821 71.633 41.3811 71.4849 41.7437C71.3367 42.1063 71.0858 42.4162 70.7639 42.6342C70.442 42.8522 70.0635 42.9686 69.6763 42.9686C69.4183 42.9686 69.1628 42.9169 68.9245 42.8164C68.6862 42.716 68.4699 42.5688 68.288 42.3832C68.1061 42.1977 67.9621 41.9775 67.8644 41.7354C67.7667 41.4933 67.7173 41.234 67.7188 40.9724V40.9843ZM67.7188 58.5336C67.7188 58.1411 67.8336 57.7575 68.0487 57.4311C68.2638 57.1048 68.5695 56.8505 68.9272 56.7003C69.2849 56.5501 69.6785 56.5108 70.0582 56.5874C70.438 56.6639 70.7868 56.8529 71.0605 57.1304C71.3343 57.408 71.5207 57.7615 71.5963 58.1464C71.6718 58.5314 71.633 58.9303 71.4849 59.2929C71.3367 59.6555 71.0858 59.9654 70.7639 60.1835C70.442 60.4015 70.0635 60.5179 69.6763 60.5179C69.4183 60.5179 69.1628 60.4662 68.9245 60.3657C68.6862 60.2652 68.4699 60.118 68.288 59.9325C68.1061 59.747 67.9621 59.5268 67.8644 59.2847C67.7667 59.0426 67.7173 58.7832 67.7188 58.5217V58.5336ZM71.9588 88.5443C72.2326 88.2667 72.5814 88.0777 72.9611 88.0011C73.3409 87.9244 73.7345 87.9637 74.0922 88.1139C74.45 88.264 74.7557 88.5184 74.9708 88.8447C75.186 89.171 75.3008 89.5547 75.3008 89.9472C75.3008 90.3397 75.186 90.7234 74.9708 91.0497C74.7557 91.376 74.45 91.6303 74.0922 91.7805C73.7345 91.9307 73.3409 91.9699 72.9611 91.8933C72.5814 91.8167 72.2326 91.6277 71.9588 91.3501C71.7754 91.1656 71.6297 90.9462 71.5304 90.7044C71.431 90.4626 71.3798 90.2032 71.3798 89.9412C71.3798 89.6793 71.431 89.4199 71.5304 89.1781C71.6297 88.9363 71.7754 88.7168 71.9588 88.5324V88.5443ZM68.584 94.7711C68.8579 95.0485 69.0444 95.4021 69.1199 95.787C69.1955 96.172 69.1568 96.571 69.0086 96.9336C68.8605 97.2962 68.6096 97.6062 68.2877 97.8242C67.9657 98.0423 67.5872 98.1587 67.2001 98.1587C66.8129 98.1587 66.4344 98.0423 66.1124 97.8242C65.7905 97.6062 65.5396 97.2962 65.3915 96.9336C65.2433 96.571 65.2046 96.172 65.2802 95.787C65.3557 95.4021 65.5422 95.0485 65.8161 94.7711C66.1816 94.3975 66.6785 94.1863 67.1976 94.1841C67.7167 94.1819 68.2154 94.3887 68.584 94.7591V94.7711Z" fill="#38B4DB"/>
</svg>
