<svg width="200" height="48" viewBox="0 0 220 48" fill="none" xmlns="http://www.w3.org/2000/svg">
<path d="M72.824 27.52H67.96L67.064 30H65.528L69.56 18.912H71.24L75.256 30H73.72L72.824 27.52ZM72.408 26.336L70.392 20.704L68.376 26.336H72.408ZM71.96 16.432L68.552 18.256V17.168L71.96 15.168V16.432ZM80.6293 21.088C81.3866 21.088 82.0479 21.2533 82.6133 21.584C83.1893 21.9147 83.6159 22.3307 83.8933 22.832V21.232H85.3653V30.192C85.3653 30.992 85.1946 31.7013 84.8533 32.32C84.5119 32.9493 84.0213 33.44 83.3813 33.792C82.7519 34.144 82.0159 34.32 81.1733 34.32C80.0213 34.32 79.0613 34.048 78.2933 33.504C77.5253 32.96 77.0719 32.2187 76.9333 31.28H78.3733C78.5333 31.8133 78.8639 32.24 79.3653 32.56C79.8666 32.8907 80.4693 33.056 81.1733 33.056C81.9733 33.056 82.6239 32.8053 83.1253 32.304C83.6373 31.8027 83.8933 31.0987 83.8933 30.192V28.352C83.6053 28.864 83.1786 29.2907 82.6133 29.632C82.0479 29.9733 81.3866 30.144 80.6293 30.144C79.8506 30.144 79.1413 29.952 78.5013 29.568C77.8719 29.184 77.3759 28.6453 77.0133 27.952C76.6506 27.2587 76.4693 26.4693 76.4693 25.584C76.4693 24.688 76.6506 23.904 77.0133 23.232C77.3759 22.5493 77.8719 22.0213 78.5013 21.648C79.1413 21.2747 79.8506 21.088 80.6293 21.088ZM83.8933 25.6C83.8933 24.9387 83.7599 24.3627 83.4933 23.872C83.2266 23.3813 82.8639 23.008 82.4053 22.752C81.9573 22.4853 81.4613 22.352 80.9173 22.352C80.3733 22.352 79.8773 22.48 79.4293 22.736C78.9813 22.992 78.6239 23.3653 78.3573 23.856C78.0906 24.3467 77.9573 24.9227 77.9573 25.584C77.9573 26.256 78.0906 26.8427 78.3573 27.344C78.6239 27.8347 78.9813 28.2133 79.4293 28.48C79.8773 28.736 80.3733 28.864 80.9173 28.864C81.4613 28.864 81.9573 28.736 82.4053 28.48C82.8639 28.2133 83.2266 27.8347 83.4933 27.344C83.7599 26.8427 83.8933 26.2613 83.8933 25.6ZM95.6018 21.232V30H94.1458V28.704C93.8684 29.152 93.4791 29.504 92.9778 29.76C92.4871 30.0053 91.9431 30.128 91.3458 30.128C90.6631 30.128 90.0498 29.9893 89.5058 29.712C88.9618 29.424 88.5298 28.9973 88.2098 28.432C87.9004 27.8667 87.7458 27.1787 87.7458 26.368V21.232H89.1858V26.176C89.1858 27.04 89.4044 27.7067 89.8418 28.176C90.2791 28.6347 90.8764 28.864 91.6338 28.864C92.4124 28.864 93.0258 28.624 93.4738 28.144C93.9218 27.664 94.1458 26.9653 94.1458 26.048V21.232H95.6018ZM97.5161 25.584C97.5161 24.688 97.6975 23.904 98.0601 23.232C98.4228 22.5493 98.9188 22.0213 99.5481 21.648C100.188 21.2747 100.897 21.088 101.676 21.088C102.444 21.088 103.111 21.2533 103.676 21.584C104.241 21.9147 104.663 22.3307 104.94 22.832V21.232H106.412V30H104.94V28.368C104.652 28.88 104.22 29.3067 103.644 29.648C103.079 29.9787 102.417 30.144 101.66 30.144C100.881 30.144 100.177 29.952 99.5481 29.568C98.9188 29.184 98.4228 28.6453 98.0601 27.952C97.6975 27.2587 97.5161 26.4693 97.5161 25.584ZM104.94 25.6C104.94 24.9387 104.807 24.3627 104.54 23.872C104.273 23.3813 103.911 23.008 103.452 22.752C103.004 22.4853 102.508 22.352 101.964 22.352C101.42 22.352 100.924 22.48 100.476 22.736C100.028 22.992 99.6708 23.3653 99.4041 23.856C99.1375 24.3467 99.0041 24.9227 99.0041 25.584C99.0041 26.256 99.1375 26.8427 99.4041 27.344C99.6708 27.8347 100.028 28.2133 100.476 28.48C100.924 28.736 101.42 28.864 101.964 28.864C102.508 28.864 103.004 28.736 103.452 28.48C103.911 28.2133 104.273 27.8347 104.54 27.344C104.807 26.8427 104.94 26.2613 104.94 25.6ZM121.458 24.768H118.05V28.224H116.69V24.768H113.298V23.536H116.69V20.064H118.05V23.536H121.458V24.768ZM132.598 21.072C133.664 21.072 134.528 21.3973 135.19 22.048C135.851 22.688 136.182 23.616 136.182 24.832V30H134.742V25.04C134.742 24.1653 134.523 23.4987 134.086 23.04C133.648 22.5707 133.051 22.336 132.294 22.336C131.526 22.336 130.912 22.576 130.454 23.056C130.006 23.536 129.782 24.2347 129.782 25.152V30H128.326V21.232H129.782V22.48C130.07 22.032 130.459 21.6853 130.95 21.44C131.451 21.1947 132 21.072 132.598 21.072ZM138.016 25.584C138.016 24.688 138.197 23.904 138.56 23.232C138.923 22.5493 139.419 22.0213 140.048 21.648C140.688 21.2747 141.397 21.088 142.176 21.088C142.944 21.088 143.611 21.2533 144.176 21.584C144.741 21.9147 145.163 22.3307 145.44 22.832V21.232H146.912V30H145.44V28.368C145.152 28.88 144.72 29.3067 144.144 29.648C143.579 29.9787 142.917 30.144 142.16 30.144C141.381 30.144 140.677 29.952 140.048 29.568C139.419 29.184 138.923 28.6453 138.56 27.952C138.197 27.2587 138.016 26.4693 138.016 25.584ZM145.44 25.6C145.44 24.9387 145.307 24.3627 145.04 23.872C144.773 23.3813 144.411 23.008 143.952 22.752C143.504 22.4853 143.008 22.352 142.464 22.352C141.92 22.352 141.424 22.48 140.976 22.736C140.528 22.992 140.171 23.3653 139.904 23.856C139.637 24.3467 139.504 24.9227 139.504 25.584C139.504 26.256 139.637 26.8427 139.904 27.344C140.171 27.8347 140.528 28.2133 140.976 28.48C141.424 28.736 141.92 28.864 142.464 28.864C143.008 28.864 143.504 28.736 143.952 28.48C144.411 28.2133 144.773 27.8347 145.04 27.344C145.307 26.8427 145.44 26.2613 145.44 25.6ZM151.149 22.432V27.6C151.149 28.0267 151.239 28.3307 151.421 28.512C151.602 28.6827 151.917 28.768 152.365 28.768H153.437V30H152.125C151.314 30 150.706 29.8133 150.301 29.44C149.895 29.0667 149.693 28.4533 149.693 27.6V22.432H148.557V21.232H149.693V19.024H151.149V21.232H153.437V22.432H151.149ZM162.977 21.232V30H161.521V28.704C161.243 29.152 160.854 29.504 160.353 29.76C159.862 30.0053 159.318 30.128 158.721 30.128C158.038 30.128 157.425 29.9893 156.881 29.712C156.337 29.424 155.905 28.9973 155.585 28.432C155.275 27.8667 155.121 27.1787 155.121 26.368V21.232H156.561V26.176C156.561 27.04 156.779 27.7067 157.217 28.176C157.654 28.6347 158.251 28.864 159.009 28.864C159.787 28.864 160.401 28.624 160.849 28.144C161.297 27.664 161.521 26.9653 161.521 26.048V21.232H162.977ZM166.891 22.656C167.147 22.1547 167.51 21.7653 167.979 21.488C168.459 21.2107 169.04 21.072 169.723 21.072V22.576H169.339C167.707 22.576 166.891 23.4613 166.891 25.232V30H165.435V21.232H166.891V22.656ZM170.86 25.584C170.86 24.688 171.041 23.904 171.404 23.232C171.767 22.5493 172.263 22.0213 172.892 21.648C173.532 21.2747 174.241 21.088 175.02 21.088C175.788 21.088 176.455 21.2533 177.02 21.584C177.585 21.9147 178.007 22.3307 178.284 22.832V21.232H179.756V30H178.284V28.368C177.996 28.88 177.564 29.3067 176.988 29.648C176.423 29.9787 175.761 30.144 175.004 30.144C174.225 30.144 173.521 29.952 172.892 29.568C172.263 29.184 171.767 28.6453 171.404 27.952C171.041 27.2587 170.86 26.4693 170.86 25.584ZM178.284 25.6C178.284 24.9387 178.151 24.3627 177.884 23.872C177.617 23.3813 177.255 23.008 176.796 22.752C176.348 22.4853 175.852 22.352 175.308 22.352C174.764 22.352 174.268 22.48 173.82 22.736C173.372 22.992 173.015 23.3653 172.748 23.856C172.481 24.3467 172.348 24.9227 172.348 25.584C172.348 26.256 172.481 26.8427 172.748 27.344C173.015 27.8347 173.372 28.2133 173.82 28.48C174.268 28.736 174.764 28.864 175.308 28.864C175.852 28.864 176.348 28.736 176.796 28.48C177.255 28.2133 177.617 27.8347 177.884 27.344C178.151 26.8427 178.284 26.2613 178.284 25.6ZM183.672 18.16V30H182.216V18.16H183.672Z" fill="#5EC3DA"/>
<g clip-path="url(#clip0)">
<path d="M6.50788 11.9646C9.05447 29.9399 24.1076 28.924 30.6438 30.3914C31.0117 30.4761 31.4644 30.2503 31.5493 29.7988C31.6342 29.4884 31.4644 29.0651 31.0966 28.9805C29.2291 28.2468 27.8143 26.9769 26.8523 25.3967C41.679 21.7565 37.4347 11.118 40.6321 4.65595C40.8585 4.20446 40.5472 3.61186 40.0379 3.61186C32.6528 1.74943 26.6259 4.8817 24.7584 13.0651C22.2967 2.28558 15.6756 -1.04422 4.92334 0.733556C4.69698 0.733556 4.5555 0.818212 4.41403 0.959305C4.18766 1.18505 4.10278 1.46724 4.27255 1.77765C5.00823 3.41433 5.8288 7.11098 6.50788 11.9646ZM38.9344 4.82527C36.2463 12.5572 39.3871 20.8817 26.2015 24.0704C26.1166 23.9293 26.1166 23.8447 26.0317 23.7036C28.7198 21.4743 29.0027 18.8782 29.4554 17.8341H32.1435C32.5962 17.8341 32.8792 17.5237 32.8792 17.1004C32.8792 16.6489 32.5679 16.3667 32.1435 16.3667H30.3609C31.4927 14.9558 32.9641 13.827 32.9641 13.827C33.2753 13.6013 33.3319 13.0933 33.1055 12.7829C32.8792 12.4725 32.3699 12.4161 32.0586 12.6418C31.9737 12.7265 30.5024 13.827 29.2291 15.3791L28.8612 14.1092C28.7198 13.7424 28.3519 13.5166 27.9558 13.6013C27.5879 13.7424 27.3616 14.1092 27.4465 14.4761L28.1821 16.9311C27.4465 18.4267 27.5879 19.9787 25.579 21.9258C24.3057 12.1057 28.55 2.73708 38.9344 4.82527ZM24.0793 20.8817C24.0793 22.8852 24.7584 25.1145 26.1732 26.9769C20.9668 23.7882 21.2498 20.656 19.9199 18.1163L20.8819 14.5607C20.9668 14.1939 20.7405 13.7424 20.3726 13.6577C20.0048 13.5731 19.5521 13.827 19.4672 14.1939L18.873 16.4232C17.7411 14.9276 16.5527 13.9681 15.0814 12.6418C14.7701 12.3314 14.2608 12.3879 14.0345 12.6983C13.7232 13.0087 13.8081 13.5166 14.091 13.7424C15.5058 15.0122 16.7791 16.0563 17.826 17.4672L14.855 17.6083C14.4023 17.6083 14.1193 17.9752 14.1193 18.342C14.1193 18.7089 14.4872 19.0757 14.855 19.0757C15.1663 19.0757 13.7232 19.1604 18.6466 18.9346C19.7784 21.2485 19.6086 24.5219 24.9848 27.9928C18.4202 27.118 9.79015 24.5784 7.97924 11.7388C7.6114 9.14273 6.93232 4.68417 5.97027 2.08805C16.2698 -0.000130326 23.7964 4.8817 24.0793 20.8817Z" fill="#91D5EA"/>
<path d="M30.7853 30.6737C30.7287 30.6737 30.6438 30.6737 30.5872 30.6455C29.5969 30.4198 28.3802 30.2505 27.1069 30.0811C19.6652 29.037 8.40365 27.4568 6.2249 11.993C5.54582 7.19577 4.75354 3.49913 4.01786 1.89066C3.8198 1.4956 3.90468 1.07232 4.21593 0.761912C4.4423 0.536162 4.64036 0.451506 4.95161 0.451506C15.8736 -1.35449 22.2118 2.28572 24.7867 11.9083C25.777 8.52205 27.5879 5.92593 30.0779 4.43034C32.8226 2.76544 36.3029 2.3986 40.1511 3.35803C40.1511 3.35803 40.1511 3.35803 40.1794 3.35803C40.434 3.35803 40.717 3.52734 40.8867 3.80953C41.0848 4.11994 41.0848 4.48678 40.9433 4.79719C40.0379 6.60318 39.7549 8.7478 39.4154 11.0335C38.6231 16.5926 37.746 22.8854 27.3333 25.5944C28.2953 27.0053 29.6252 28.0776 31.238 28.7266C31.4078 28.7549 31.6059 28.896 31.719 29.0935C31.8605 29.3192 31.9171 29.6296 31.8605 29.8836C31.8322 30.1376 31.6624 30.3633 31.4361 30.5044C31.2097 30.6173 31.0117 30.6737 30.7853 30.6737ZM6.79081 11.9083C8.91297 26.9489 19.9199 28.5009 27.1918 29.5168C28.4934 29.6861 29.7101 29.8836 30.7287 30.1094C30.8419 30.1376 30.9834 30.1094 31.0965 30.0247C31.1531 29.9683 31.2663 29.8836 31.2663 29.7425C31.2946 29.6014 31.2663 29.4603 31.2097 29.3757C31.1531 29.3192 31.0965 29.2628 31.0399 29.2628C29.1725 28.5291 27.6445 27.2593 26.5976 25.5661L26.3995 25.2275L26.7673 25.1429C37.18 22.575 38.0006 16.6773 38.7929 10.9489C39.1324 8.63493 39.4154 6.43387 40.3491 4.54322C40.4057 4.40212 40.4057 4.23281 40.3208 4.09172C40.2642 4.03528 40.1794 3.89419 40.0096 3.89419C36.2463 2.96297 32.9074 3.30159 30.3043 4.88184C27.7294 6.51853 25.8902 9.34039 25.0413 13.1217L24.7584 14.3351L24.4754 13.1217C22.1552 2.90653 16.1283 -0.846554 4.97991 1.01588C4.81014 1.01588 4.72525 1.0441 4.61207 1.15697C4.49889 1.26985 4.414 1.43916 4.52718 1.63669C5.29116 3.32981 6.11172 7.05468 6.79081 11.9083ZM26.2014 28.4727L24.9564 28.3034C17.8826 27.3439 9.50717 24.5785 7.72456 11.7954C7.41331 9.73546 6.73422 4.88184 5.71559 2.20107L5.60241 1.86244L5.94195 1.806C11.0917 0.761912 15.2794 1.4956 18.3636 3.97884C22.2118 7.05468 24.2491 12.7549 24.3905 20.9101C24.3905 22.9982 25.1262 25.1429 26.4278 26.836L27.3333 28.0494L26.0317 27.2028C22.042 24.776 21.1932 22.3492 20.4575 20.2328C20.2028 19.5273 19.9765 18.8783 19.6652 18.2575L19.6086 18.1728L19.6369 18.06L20.599 14.5044C20.6273 14.4198 20.599 14.2787 20.5424 14.1658C20.5141 14.0811 20.4292 13.9683 20.316 13.94C20.0613 13.8836 19.7784 14.0529 19.7501 14.2504L19.0144 17.0723L18.6466 16.5926C17.7128 15.351 16.7225 14.4762 15.5624 13.4321L14.8833 12.8395C14.7701 12.7266 14.6003 12.7266 14.572 12.7266C14.4589 12.7266 14.3174 12.7831 14.2608 12.8677C14.1193 13.0088 14.1193 13.1499 14.1193 13.2064C14.1193 13.3192 14.1759 13.4603 14.2608 13.5168L14.855 14.0247C16.0151 15.0688 17.1186 16.0282 18.0524 17.2698L18.3636 17.6931L14.855 17.8907C14.5437 17.8907 14.374 18.1164 14.374 18.3422C14.374 18.5679 14.6286 18.7937 14.8267 18.7937H15.0814C15.5058 18.7654 16.581 18.7372 18.6183 18.6243H18.8163L18.9012 18.7937C19.1559 19.3298 19.354 19.9224 19.552 20.515C20.2311 22.6032 21.0517 25.1146 25.1262 27.7672L26.2014 28.4727ZM6.36638 2.28572C7.32842 5.07937 7.97922 9.67902 8.26217 11.6825C9.9033 23.4215 17.2318 26.4691 23.8246 27.5415C20.4575 25.03 19.6652 22.6596 19.0144 20.7125C18.8446 20.2046 18.6749 19.6967 18.4768 19.2452C16.4678 19.3298 15.5058 19.358 15.0531 19.358L14.9399 19.3863V19.358C14.9116 19.358 14.8833 19.358 14.8833 19.358V19.3863C14.3457 19.3863 13.8364 18.8783 13.8364 18.3704C13.8364 17.8907 14.2325 17.3545 14.855 17.3545L17.2884 17.2134C16.4678 16.1975 15.5341 15.3792 14.4872 14.448L13.9212 13.94C13.7232 13.7989 13.5817 13.545 13.5534 13.2346C13.5251 12.9524 13.6383 12.6702 13.8364 12.4727C13.9778 12.3034 14.2325 12.1623 14.5154 12.134C14.7984 12.1058 15.0814 12.2187 15.2794 12.4162L15.9585 13.0088C16.9771 13.94 17.8826 14.7584 18.7315 15.8025L19.1842 14.1094C19.2974 13.5732 19.9199 13.291 20.4009 13.3757C20.6555 13.4321 20.8819 13.6014 21.0234 13.8554C21.1649 14.0811 21.2215 14.3633 21.1649 14.6173L20.2311 18.0882C20.5424 18.709 20.7687 19.358 20.9951 20.0353C21.6176 21.8695 22.325 23.9012 25.1828 25.9612C24.3056 24.4092 23.7963 22.6032 23.7963 20.8818C23.6549 12.896 21.7025 7.36509 17.9958 4.40212C15.1097 2.08819 11.1766 1.38272 6.36638 2.28572ZM26.0317 24.4092L25.9185 24.2116C25.8902 24.0988 25.8619 24.0423 25.8336 23.9859C25.8053 23.9295 25.8053 23.873 25.777 23.8166L25.6638 23.6191L25.8336 23.478C27.8992 21.7566 28.5217 19.8095 28.8895 18.5397C29.0027 18.2011 29.0876 17.9189 29.1725 17.7213L29.2573 17.552H32.1152C32.3981 17.552 32.5679 17.3827 32.5679 17.1005C32.5679 16.8183 32.3981 16.649 32.1152 16.649H29.7384L30.1062 16.1975C31.238 14.7866 32.7094 13.6579 32.766 13.6296C32.8509 13.5732 32.9074 13.4603 32.9357 13.3192C32.964 13.1781 32.9357 13.0653 32.8791 12.9806C32.8226 12.896 32.7094 12.8395 32.5679 12.8113C32.4547 12.7831 32.3132 12.8113 32.2284 12.8677C32.2284 12.8677 32.2001 12.896 32.1152 12.9524C31.0399 13.8272 30.1345 14.7019 29.4271 15.5767L29.0876 16L28.5783 14.194C28.4934 13.9683 28.267 13.8272 28.0123 13.8554C27.8143 13.94 27.6728 14.194 27.7294 14.4198L28.4934 16.9594L28.4368 17.0723C28.2104 17.4956 28.0689 17.9471 27.9275 18.4268C27.5879 19.4991 27.2201 20.7407 25.777 22.1235L25.3809 22.5185L25.296 21.9542C24.4754 15.5767 25.9751 9.90477 29.2856 6.82893C31.719 4.57144 35.0862 3.78131 38.9627 4.54322L39.2739 4.59965L39.1607 4.91006C38.4816 6.85715 38.1704 8.8889 37.8874 10.836C37.0386 16.5362 36.218 21.9259 26.2297 24.3527L26.0317 24.4092ZM29.6535 18.1164C29.5969 18.2857 29.5403 18.4833 29.4554 18.709C29.0876 19.9224 28.4651 21.9259 26.4561 23.7037C35.7653 21.3333 36.501 16.4233 37.3498 10.7513C37.6328 8.8889 37.9157 6.94181 38.5382 5.02293C34.9164 4.37391 31.9454 5.10759 29.6535 7.22399C26.5976 10.1023 25.1545 15.3228 25.8053 21.3051C26.7956 20.2046 27.1069 19.2169 27.4181 18.2857C27.5596 17.8342 27.7011 17.3827 27.8992 16.9312L27.1635 14.5609C27.0503 14.0529 27.3616 13.5168 27.8709 13.3192C28.4085 13.2064 28.9461 13.4885 29.1442 13.9965L29.3705 14.7866C30.0496 14.0247 30.8702 13.2346 31.8039 12.5009L31.8888 12.4162C32.1152 12.2469 32.3981 12.1905 32.6811 12.2187C32.964 12.2469 33.2187 12.388 33.3602 12.5855C33.5016 12.7831 33.5865 13.0653 33.5299 13.3475C33.5016 13.6296 33.3602 13.8836 33.1621 14.0247C33.1621 14.0247 32.002 14.8995 30.9834 16.0564H32.1718C32.766 16.0564 33.1904 16.4797 33.1904 17.0723C33.1904 17.6649 32.766 18.0882 32.1718 18.0882H29.6535V18.1164Z" fill="#91D5EA"/>
<path d="M34.3788 32.9877L28.0407 36.769C27.6728 35.5838 26.541 34.6808 25.2111 34.6243C19.6086 34.4832 17.3167 32.7055 17.3167 32.7055C14.4023 29.9683 10.6107 29.3474 7.41334 31.0688L0.707336 34.6243C0.339496 34.8501 0.198019 35.3016 0.396087 35.6684C0.62245 36.0353 1.07518 36.1764 1.44302 35.9788L8.14902 32.4233C10.7522 31.0123 13.893 31.5203 16.3547 33.9189C16.4396 34.0035 19.0427 36.0071 25.2111 36.2328C26.0317 36.2328 26.7108 36.91 26.7108 37.7284C26.7108 38.4621 26.1166 39.1393 25.3809 39.224C22.6363 39.5344 17.5431 39.6755 14.3457 37.672C13.9779 37.4462 13.5251 37.5309 13.2988 37.8977C13.0724 38.2645 13.1573 38.716 13.5251 38.9418C16.7225 40.9453 21.7308 41.0864 25.4375 40.7196C26.6259 40.5785 27.6728 39.7601 27.9841 38.6314L35.1428 34.3986C36.4727 33.5802 38.1138 33.9471 39.0193 35.2169C39.1608 35.358 39.1042 35.6684 38.9344 35.8095L23.2022 45.7143C22.2967 46.2222 21.2781 46.3915 20.3726 45.94L10.5258 41.6226C9.62038 41.2557 8.51686 41.2557 7.69629 41.8483L4.86676 43.5697C4.49892 43.7954 4.41403 44.2469 4.64039 44.6138C4.86676 44.9806 5.31948 45.0653 5.68732 44.8395L8.43197 43.1182C8.8847 42.8078 9.39402 42.8078 9.84674 43.0335L19.6935 47.351C21.1083 47.9436 22.6646 47.8589 23.9378 47.0406C36.6708 38.0388 42.3581 37.164 40.2643 34.2575C38.9344 32.3104 36.3878 31.8025 34.3788 32.9877Z" fill="#91D5EA"/>
<path d="M21.5893 48C20.9385 48 20.2594 47.8589 19.5804 47.5768L9.73356 43.2593C9.33743 43.0618 8.913 43.09 8.57345 43.3157L5.80051 45.0371C5.54585 45.1782 5.26289 45.2346 5.00824 45.1782C4.72528 45.1217 4.49892 44.9524 4.35744 44.6985C4.21597 44.4445 4.15937 44.1623 4.21597 43.8801C4.27256 43.6261 4.44233 43.4004 4.66869 43.2593L7.49823 41.538C8.3188 40.9454 9.5072 40.8325 10.5824 41.284L20.4292 45.6014C21.1932 45.9965 22.1269 45.9119 23.0041 45.4039L38.708 35.4427C38.708 35.4145 38.7363 35.3016 38.7363 35.2734C37.8875 34.0882 36.4161 33.7778 35.1994 34.5115L28.1256 38.6879C27.8426 39.9013 26.7674 40.7761 25.4658 40.9171C23.089 41.1429 17.1187 41.4533 13.3554 39.0829C13.1007 38.9418 12.9592 38.7161 12.9026 38.4339C12.8461 38.1799 12.9026 37.8977 13.0441 37.672C13.1856 37.418 13.412 37.2487 13.6949 37.1923C13.9496 37.1358 14.2325 37.1923 14.4872 37.3334C17.7977 39.4216 23.1739 39.0829 25.3526 38.8572C25.9468 38.8007 26.4561 38.2646 26.4561 37.6438C26.4561 36.9665 25.9185 36.4304 25.2394 36.4304C18.8164 36.2046 16.1849 34.06 16.1566 34.0318C13.8364 31.7743 10.8088 31.2381 8.2905 32.5926L1.5845 36.1482C1.35813 36.2893 1.10347 36.3175 0.848816 36.2611C0.565862 36.2046 0.339499 36.0071 0.169727 35.7531C-4.55296e-05 35.5556 -0.0283409 35.2734 0.0565452 35.0194C0.141431 34.7655 0.311204 34.5397 0.565862 34.3986L7.30016 30.8149C10.639 29.0371 14.5721 29.6861 17.5431 32.508C17.5431 32.508 19.8633 34.2293 25.2677 34.3704C26.5693 34.4551 27.7294 35.2452 28.2387 36.4022L34.2939 32.7902C36.4444 31.5203 39.1325 32.0847 40.5472 34.1447C40.9434 34.709 41.0848 35.217 41 35.7249C40.7453 36.9947 38.9627 38.0388 35.4258 40.127C32.6811 41.7637 28.9178 43.9648 24.1642 47.3228C23.3436 47.7743 22.4665 48 21.5893 48ZM9.19595 42.582C9.45061 42.582 9.73356 42.6385 9.98822 42.7796L19.8067 47.0688C21.1649 47.6332 22.6363 47.5485 23.7964 46.7866C28.55 43.4286 32.3133 41.1993 35.0862 39.5626C38.2553 37.672 40.1794 36.5432 40.4058 35.5274C40.4906 35.1888 40.3775 34.8219 40.0662 34.3986C38.8212 32.5926 36.4444 32.0847 34.5486 33.2134L27.8992 37.1923L27.786 36.8537C27.4465 35.7531 26.3995 34.963 25.2111 34.9066C19.6087 34.7655 17.2601 32.9877 17.147 32.903C14.3174 30.2505 10.6673 29.6297 7.52652 31.2946L0.82052 34.8501C0.707339 34.9066 0.622453 35.0194 0.594157 35.1323C0.565862 35.217 0.565862 35.3581 0.650748 35.4709C0.735634 35.5838 0.848816 35.6967 0.990293 35.7249C1.10347 35.7531 1.21666 35.7249 1.32984 35.6685L8.06414 32.0847C10.8088 30.6173 14.0628 31.1817 16.581 33.6085C16.6093 33.6367 19.1842 35.612 25.2677 35.8378C26.2298 35.8378 27.022 36.6279 27.022 37.6156C27.022 38.4903 26.3147 39.3087 25.4375 39.3933C23.2305 39.6473 17.6846 39.9577 14.2325 37.7849C14.0345 37.672 13.7515 37.6438 13.5817 37.926C13.4969 38.0388 13.4686 38.1799 13.4968 38.2928C13.5251 38.4057 13.5817 38.5186 13.6949 38.575C17.3167 40.8607 23.1173 40.5503 25.4375 40.3246C26.541 40.1835 27.4748 39.4216 27.7294 38.4621V38.3775L34.973 34.0882C36.4161 33.2134 38.227 33.6085 39.2173 34.9912C39.3022 35.0477 39.3588 35.217 39.3588 35.3863C39.3588 35.5838 39.2739 35.8096 39.1325 35.9507L23.3719 45.9401C22.325 46.5609 21.1932 46.6455 20.2594 46.1658L10.4409 41.8484C9.73356 41.5662 8.71493 41.4533 7.89436 42.0459L5.03653 43.7672C4.92335 43.8237 4.86676 43.9083 4.83846 44.0212C4.81017 44.1341 4.83846 44.2752 4.92335 44.4163C4.97994 44.5291 5.09312 44.5856 5.2063 44.6138C5.31949 44.642 5.46096 44.6138 5.57414 44.5291L8.3188 42.836C8.57345 42.6667 8.8847 42.582 9.19595 42.582Z" fill="#91D5EA"/>
</g>
<defs>
<clipPath id="clip0">
<rect width="41" height="48" fill="white"/>
</clipPath>
</defs>
</svg>
