<svg width="228" height="46" viewBox="0 0 228 46" fill="none" xmlns="http://www.w3.org/2000/svg">
<path d="M24.5 35.2702C27.9716 35.2658 31.2997 33.8847 33.7545 31.4299C36.2093 28.9751 37.5903 25.647 37.5948 22.1754C37.5948 15.2261 25.8129 0.961795 25.3124 0.360189C25.2097 0.246766 25.0843 0.15612 24.9444 0.0940848C24.8044 0.0320498 24.6531 0 24.5 0C24.3469 0 24.1956 0.0320498 24.0556 0.0940848C23.9157 0.15612 23.7903 0.246766 23.6876 0.360189C23.1872 0.961795 11.4052 15.2261 11.4052 22.1754C11.4097 25.647 12.7907 28.9751 15.2455 31.4299C17.7003 33.8847 21.0284 35.2658 24.5 35.2702ZM24.5 2.70195C28.1884 7.30959 35.4863 17.4188 35.4863 22.1754C35.4863 25.0892 34.3289 27.8836 32.2685 29.944C30.2082 32.0043 27.4138 33.1618 24.5 33.1618C21.5862 33.1618 18.7918 32.0043 16.7315 29.944C14.6711 27.8836 13.5137 25.0892 13.5137 22.1754C13.5137 17.4188 20.8116 7.30959 24.5 2.70195ZM18.5205 28.7285C17.6094 27.8969 16.8812 26.8849 16.3822 25.7567C15.8833 24.6286 15.6244 23.409 15.6221 22.1754C15.6221 21.8959 15.7332 21.6277 15.9309 21.43C16.1286 21.2323 16.3967 21.1212 16.6763 21.1212C16.9559 21.1212 17.224 21.2323 17.4218 21.43C17.6195 21.6277 17.7305 21.8959 17.7305 22.1754C17.7331 23.1161 17.9308 24.046 18.3111 24.9064C18.6915 25.7667 19.2462 26.5388 19.9402 27.1738C20.0972 27.3172 20.2073 27.5047 20.2559 27.7117C20.3045 27.9188 20.2893 28.1357 20.2124 28.3339C20.1354 28.5322 20.0003 28.7025 19.8248 28.8226C19.6493 28.9427 19.4416 29.0069 19.2289 29.0068C18.9661 29.0068 18.713 28.9074 18.5205 28.7285ZM49 35.5767C49 41.9048 39.3827 45.9783 24.5 45.9783C9.61727 45.9783 0 41.8907 0 35.5767C0 31.9417 3.24137 28.9562 9.1253 27.1738C9.25784 27.1336 9.397 27.1199 9.53484 27.1334C9.67269 27.1469 9.80652 27.1875 9.92869 27.2528C10.0509 27.318 10.159 27.4067 10.2469 27.5138C10.3348 27.6208 10.4007 27.7441 10.441 27.8767C10.4812 28.0092 10.4949 28.1484 10.4814 28.2862C10.4679 28.424 10.4273 28.5579 10.362 28.68C10.2968 28.8022 10.2081 28.9103 10.101 28.9982C9.994 29.0861 9.87069 29.1521 9.73815 29.1923C4.81847 30.6823 2.10843 32.951 2.10843 35.5767C2.10843 40.4682 11.3181 43.8839 24.5 43.8839C37.6819 43.8839 46.8916 40.4682 46.8916 35.5767C46.8916 32.951 44.1815 30.6823 39.2618 29.1923C38.9942 29.111 38.7698 28.9268 38.638 28.68C38.5062 28.4333 38.4778 28.1443 38.559 27.8767C38.6403 27.609 38.8246 27.3846 39.0713 27.2528C39.318 27.121 39.607 27.0926 39.8747 27.1738C45.7586 28.9562 49 31.9417 49 35.5767ZM9.6988 35.5767C9.6988 36.8108 14.9221 39.2172 24.5 39.2172C34.0779 39.2172 39.3012 36.8108 39.3012 35.5767C39.3012 35.2618 38.7193 34.4522 36.5153 33.6763C36.2517 33.5827 36.0361 33.3882 35.9159 33.1357C35.7957 32.8832 35.7807 32.5932 35.8743 32.3297C35.9679 32.0661 36.1623 31.8505 36.4148 31.7303C36.6674 31.6101 36.9573 31.5951 37.2209 31.6887C40.6843 32.9172 41.4096 34.4803 41.4096 35.5767C41.4096 39.3493 32.9028 41.3256 24.5 41.3256C16.0972 41.3256 7.59036 39.3578 7.59036 35.5767C7.59036 34.0192 8.99598 32.712 11.7679 31.6915C11.9004 31.6265 12.045 31.5901 12.1925 31.5845C12.34 31.579 12.487 31.6045 12.624 31.6593C12.761 31.7142 12.8849 31.7972 12.9878 31.9029C13.0907 32.0087 13.1703 32.1349 13.2213 32.2734C13.2723 32.4119 13.2937 32.5595 13.2841 32.7068C13.2745 32.8541 13.234 32.9977 13.1654 33.1283C13.0968 33.2589 13.0015 33.3737 12.8857 33.4652C12.7699 33.5567 12.6362 33.6228 12.4932 33.6594C10.2835 34.4859 9.6988 35.273 9.6988 35.5767Z" fill="#91D5EA"/>
<path d="M80.824 26.52H75.96L75.064 29H73.528L77.56 17.912H79.24L83.256 29H81.72L80.824 26.52ZM80.408 25.336L78.392 19.704L76.376 25.336H80.408ZM79.96 15.432L76.552 17.256V16.168L79.96 14.168V15.432ZM88.6293 20.088C89.3866 20.088 90.0479 20.2533 90.6133 20.584C91.1893 20.9147 91.6159 21.3307 91.8933 21.832V20.232H93.3653V29.192C93.3653 29.992 93.1946 30.7013 92.8533 31.32C92.5119 31.9493 92.0213 32.44 91.3813 32.792C90.7519 33.144 90.0159 33.32 89.1733 33.32C88.0213 33.32 87.0613 33.048 86.2933 32.504C85.5253 31.96 85.0719 31.2187 84.9333 30.28H86.3733C86.5333 30.8133 86.8639 31.24 87.3653 31.56C87.8666 31.8907 88.4693 32.056 89.1733 32.056C89.9733 32.056 90.6239 31.8053 91.1253 31.304C91.6373 30.8027 91.8933 30.0987 91.8933 29.192V27.352C91.6053 27.864 91.1786 28.2907 90.6133 28.632C90.0479 28.9733 89.3866 29.144 88.6293 29.144C87.8506 29.144 87.1413 28.952 86.5013 28.568C85.8719 28.184 85.3759 27.6453 85.0133 26.952C84.6506 26.2587 84.4693 25.4693 84.4693 24.584C84.4693 23.688 84.6506 22.904 85.0133 22.232C85.3759 21.5493 85.8719 21.0213 86.5013 20.648C87.1413 20.2747 87.8506 20.088 88.6293 20.088ZM91.8933 24.6C91.8933 23.9387 91.7599 23.3627 91.4933 22.872C91.2266 22.3813 90.8639 22.008 90.4053 21.752C89.9573 21.4853 89.4613 21.352 88.9173 21.352C88.3733 21.352 87.8773 21.48 87.4293 21.736C86.9813 21.992 86.6239 22.3653 86.3573 22.856C86.0906 23.3467 85.9573 23.9227 85.9573 24.584C85.9573 25.256 86.0906 25.8427 86.3573 26.344C86.6239 26.8347 86.9813 27.2133 87.4293 27.48C87.8773 27.736 88.3733 27.864 88.9173 27.864C89.4613 27.864 89.9573 27.736 90.4053 27.48C90.8639 27.2133 91.2266 26.8347 91.4933 26.344C91.7599 25.8427 91.8933 25.2613 91.8933 24.6ZM103.602 20.232V29H102.146V27.704C101.868 28.152 101.479 28.504 100.978 28.76C100.487 29.0053 99.9431 29.128 99.3458 29.128C98.6631 29.128 98.0498 28.9893 97.5058 28.712C96.9618 28.424 96.5298 27.9973 96.2098 27.432C95.9004 26.8667 95.7458 26.1787 95.7458 25.368V20.232H97.1858V25.176C97.1858 26.04 97.4044 26.7067 97.8418 27.176C98.2791 27.6347 98.8764 27.864 99.6338 27.864C100.412 27.864 101.026 27.624 101.474 27.144C101.922 26.664 102.146 25.9653 102.146 25.048V20.232H103.602ZM105.516 24.584C105.516 23.688 105.697 22.904 106.06 22.232C106.423 21.5493 106.919 21.0213 107.548 20.648C108.188 20.2747 108.897 20.088 109.676 20.088C110.444 20.088 111.111 20.2533 111.676 20.584C112.241 20.9147 112.663 21.3307 112.94 21.832V20.232H114.412V29H112.94V27.368C112.652 27.88 112.22 28.3067 111.644 28.648C111.079 28.9787 110.417 29.144 109.66 29.144C108.881 29.144 108.177 28.952 107.548 28.568C106.919 28.184 106.423 27.6453 106.06 26.952C105.697 26.2587 105.516 25.4693 105.516 24.584ZM112.94 24.6C112.94 23.9387 112.807 23.3627 112.54 22.872C112.273 22.3813 111.911 22.008 111.452 21.752C111.004 21.4853 110.508 21.352 109.964 21.352C109.42 21.352 108.924 21.48 108.476 21.736C108.028 21.992 107.671 22.3653 107.404 22.856C107.137 23.3467 107.004 23.9227 107.004 24.584C107.004 25.256 107.137 25.8427 107.404 26.344C107.671 26.8347 108.028 27.2133 108.476 27.48C108.924 27.736 109.42 27.864 109.964 27.864C110.508 27.864 111.004 27.736 111.452 27.48C111.911 27.2133 112.273 26.8347 112.54 26.344C112.807 25.8427 112.94 25.2613 112.94 24.6ZM129.458 23.768H126.05V27.224H124.69V23.768H121.298V22.536H124.69V19.064H126.05V22.536H129.458V23.768ZM137.782 21.848C138.07 21.3467 138.496 20.9307 139.062 20.6C139.638 20.2587 140.304 20.088 141.062 20.088C141.84 20.088 142.544 20.2747 143.174 20.648C143.814 21.0213 144.315 21.5493 144.678 22.232C145.04 22.904 145.222 23.688 145.222 24.584C145.222 25.4693 145.04 26.2587 144.678 26.952C144.315 27.6453 143.814 28.184 143.174 28.568C142.544 28.952 141.84 29.144 141.062 29.144C140.315 29.144 139.654 28.9787 139.078 28.648C138.512 28.3067 138.08 27.8853 137.782 27.384V33.16H136.326V20.232H137.782V21.848ZM143.734 24.584C143.734 23.9227 143.6 23.3467 143.334 22.856C143.067 22.3653 142.704 21.992 142.246 21.736C141.798 21.48 141.302 21.352 140.758 21.352C140.224 21.352 139.728 21.4853 139.27 21.752C138.822 22.008 138.459 22.3867 138.182 22.888C137.915 23.3787 137.782 23.9493 137.782 24.6C137.782 25.2613 137.915 25.8427 138.182 26.344C138.459 26.8347 138.822 27.2133 139.27 27.48C139.728 27.736 140.224 27.864 140.758 27.864C141.302 27.864 141.798 27.736 142.246 27.48C142.704 27.2133 143.067 26.8347 143.334 26.344C143.6 25.8427 143.734 25.256 143.734 24.584ZM154.914 20.232V29H153.458V27.704C153.181 28.152 152.792 28.504 152.29 28.76C151.8 29.0053 151.256 29.128 150.658 29.128C149.976 29.128 149.362 28.9893 148.818 28.712C148.274 28.424 147.842 27.9973 147.522 27.432C147.213 26.8667 147.058 26.1787 147.058 25.368V20.232H148.498V25.176C148.498 26.04 148.717 26.7067 149.154 27.176C149.592 27.6347 150.189 27.864 150.946 27.864C151.725 27.864 152.338 27.624 152.786 27.144C153.234 26.664 153.458 25.9653 153.458 25.048V20.232H154.914ZM158.829 21.656C159.085 21.1547 159.447 20.7653 159.917 20.488C160.397 20.2107 160.978 20.072 161.661 20.072V21.576H161.277C159.645 21.576 158.829 22.4613 158.829 24.232V29H157.373V20.232H158.829V21.656ZM162.797 24.584C162.797 23.688 162.979 22.904 163.341 22.232C163.704 21.5493 164.2 21.0213 164.829 20.648C165.469 20.2747 166.179 20.088 166.957 20.088C167.725 20.088 168.392 20.2533 168.957 20.584C169.523 20.9147 169.944 21.3307 170.221 21.832V20.232H171.693V29H170.221V27.368C169.933 27.88 169.501 28.3067 168.925 28.648C168.36 28.9787 167.699 29.144 166.941 29.144C166.163 29.144 165.459 28.952 164.829 28.568C164.2 28.184 163.704 27.6453 163.341 26.952C162.979 26.2587 162.797 25.4693 162.797 24.584ZM170.221 24.6C170.221 23.9387 170.088 23.3627 169.821 22.872C169.555 22.3813 169.192 22.008 168.733 21.752C168.285 21.4853 167.789 21.352 167.245 21.352C166.701 21.352 166.205 21.48 165.757 21.736C165.309 21.992 164.952 22.3653 164.685 22.856C164.419 23.3467 164.285 23.9227 164.285 24.584C164.285 25.256 164.419 25.8427 164.685 26.344C164.952 26.8347 165.309 27.2133 165.757 27.48C166.205 27.736 166.701 27.864 167.245 27.864C167.789 27.864 168.285 27.736 168.733 27.48C169.192 27.2133 169.555 26.8347 169.821 26.344C170.088 25.8427 170.221 25.2613 170.221 24.6Z" fill="#5EC3DA"/>
</svg>
