<svg width="44" height="59" viewBox="0 0 44 59" fill="none" xmlns="http://www.w3.org/2000/svg">
<path d="M8.13 16.7046L8.41 16.2546C8.47589 16.1369 8.56493 16.0336 8.67178 15.9512C8.77863 15.8687 8.90106 15.8087 9.03171 15.7748C9.16235 15.741 9.2985 15.7339 9.43196 15.754C9.56542 15.7741 9.69342 15.8211 9.80825 15.892C9.92308 15.9629 10.0224 16.0564 10.1001 16.1667C10.1779 16.277 10.2325 16.4019 10.2607 16.5339C10.2889 16.6659 10.2901 16.8022 10.2642 16.9347C10.2383 17.0672 10.1858 17.193 10.11 17.3046L9.83 17.7546C9.73993 17.8988 9.61462 18.0175 9.46589 18.0998C9.31717 18.182 9.14994 18.225 8.98 18.2246C8.79713 18.2264 8.61727 18.178 8.46 18.0846C8.34739 18.016 8.24946 17.9258 8.17186 17.8191C8.09426 17.7125 8.03852 17.5916 8.00785 17.4633C7.97718 17.3351 7.97218 17.202 7.99314 17.0718C8.0141 16.9416 8.06062 16.8168 8.13 16.7046ZM17.73 55.7046C17.9952 55.7046 18.2496 55.5993 18.4371 55.4118C18.6246 55.2242 18.73 54.9699 18.73 54.7046C18.73 54.4394 18.6246 54.1851 18.4371 53.9975C18.2496 53.81 17.9952 53.7046 17.73 53.7046H15.06C14.7948 53.7046 14.5404 53.81 14.3529 53.9975C14.1654 54.1851 14.06 54.4394 14.06 54.7046C14.06 54.9699 14.1654 55.2242 14.3529 55.4118C14.5404 55.5993 14.7948 55.7046 15.06 55.7046H17.73ZM17.17 45.3046C17.4352 45.3046 17.6896 45.1993 17.8771 45.0118C18.0646 44.8242 18.17 44.5699 18.17 44.3046C18.17 44.0394 18.0646 43.7851 17.8771 43.5975C17.6896 43.41 17.4352 43.3046 17.17 43.3046H15.92C15.6548 43.3046 15.4004 43.41 15.2129 43.5975C15.0254 43.7851 14.92 44.0394 14.92 44.3046C14.92 44.5699 15.0254 44.8242 15.2129 45.0118C15.4004 45.1993 15.6548 45.3046 15.92 45.3046H17.17ZM12.8 45.3046C13.0652 45.3046 13.3196 45.1993 13.5071 45.0118C13.6946 44.8242 13.8 44.5699 13.8 44.3046C13.8059 44.1375 13.7698 43.9715 13.695 43.822C13.6201 43.6724 13.509 43.544 13.3717 43.4485C13.2344 43.353 13.0753 43.2934 12.9091 43.2753C12.7428 43.2571 12.5747 43.281 12.42 43.3447C12.3008 43.3934 12.1922 43.4647 12.1 43.5546C12.0055 43.6473 11.9303 43.7577 11.8788 43.8796C11.8273 44.0015 11.8005 44.1323 11.8 44.2646C11.8005 44.397 11.8273 44.5278 11.8788 44.6497C11.9303 44.7716 12.0055 44.882 12.1 44.9746C12.2863 45.1594 12.5377 45.2635 12.8 45.2646V45.3046ZM11.92 32.3447C11.92 32.6099 12.0254 32.8642 12.2129 33.0518C12.4004 33.2393 12.6548 33.3447 12.92 33.3447H16.42C16.6852 33.3447 16.9396 33.2393 17.1271 33.0518C17.3146 32.8642 17.42 32.6099 17.42 32.3447C17.42 32.0794 17.3146 31.8251 17.1271 31.6375C16.9396 31.45 16.6852 31.3447 16.42 31.3447H12.92C12.6548 31.3447 12.4004 31.45 12.2129 31.6375C12.0254 31.8251 11.92 32.0794 11.92 32.3447ZM13.59 25.3946H11.98C11.7148 25.3946 11.4604 25.5 11.2729 25.6875C11.0854 25.8751 10.98 26.1294 10.98 26.3946C10.98 26.6599 11.0854 26.9142 11.2729 27.1018C11.4604 27.2893 11.7148 27.3946 11.98 27.3946H13.59C13.8552 27.3946 14.1096 27.2893 14.2971 27.1018C14.4846 26.9142 14.59 26.6599 14.59 26.3946C14.59 26.1294 14.4846 25.8751 14.2971 25.6875C14.1096 25.5 13.8552 25.3946 13.59 25.3946ZM39.59 57.7646C39.59 58.0299 39.4846 58.2842 39.2971 58.4718C39.1096 58.6593 38.8552 58.7646 38.59 58.7646H28.5C28.3259 58.761 28.1563 58.7091 28.01 58.6146C27.5434 58.7155 27.0673 58.7658 26.59 58.7646H23.42C22.9823 58.7654 22.5505 58.6647 22.1583 58.4704C21.7662 58.276 21.4245 57.9934 21.16 57.6446L21.08 57.5346C21.0045 57.441 20.9083 57.3661 20.799 57.3158C20.6897 57.2655 20.5703 57.2411 20.45 57.2446C20.3254 57.2481 20.2031 57.2795 20.0924 57.3366C19.9816 57.3938 19.885 57.4751 19.81 57.5746L19.74 57.6546C19.4679 58.0092 19.116 58.2944 18.7129 58.4873C18.3097 58.6802 17.8668 58.7752 17.42 58.7646H13.86C12.0035 58.7646 10.223 58.0272 8.91025 56.7144C7.5975 55.4016 6.86 53.6212 6.86 51.7646V21.0746C6.86 20.8094 6.96536 20.5551 7.15289 20.3675C7.34043 20.18 7.59478 20.0746 7.86 20.0746C8.12522 20.0746 8.37957 20.18 8.56711 20.3675C8.75464 20.5551 8.86 20.8094 8.86 21.0746V51.7646C8.86 53.0907 9.38678 54.3625 10.3245 55.3002C11.2621 56.2379 12.5339 56.7646 13.86 56.7646H17.42C17.5521 56.7654 17.6825 56.7351 17.8007 56.676C17.9188 56.6169 18.0214 56.5308 18.1 56.4246L19.65 54.5947C19.8774 54.3198 20.1633 54.099 20.4868 53.9485C20.8103 53.798 21.1632 53.7215 21.52 53.7246H26.23C26.4952 53.7246 26.7496 53.83 26.9371 54.0175C27.1246 54.2051 27.23 54.4594 27.23 54.7246C27.23 54.9899 27.1246 55.2442 26.9371 55.4318C26.7496 55.6193 26.4952 55.7246 26.23 55.7246H21.87C22.1845 55.9052 22.4598 56.1465 22.68 56.4346L22.75 56.5346C22.8378 56.62 22.9434 56.685 23.0592 56.7247C23.1751 56.7645 23.2983 56.7781 23.42 56.7646H26.62C27.9461 56.7646 29.2179 56.2379 30.1555 55.3002C31.0932 54.3625 31.62 53.0907 31.62 51.7646V51.1946H11.98C11.7148 51.1946 11.4604 51.0893 11.2729 50.9018C11.0854 50.7142 10.98 50.4599 10.98 50.1946C10.98 49.9294 11.0854 49.6751 11.2729 49.4875C11.4604 49.3 11.7148 49.1946 11.98 49.1946H31.56V45.1946H20.42C20.1548 45.1946 19.9004 45.0893 19.7129 44.9018C19.5254 44.7142 19.42 44.4599 19.42 44.1946C19.42 43.9294 19.5254 43.6751 19.7129 43.4875C19.9004 43.3 20.1548 43.1946 20.42 43.1946H31.56V39.1946H11.98C11.7148 39.1946 11.4604 39.0893 11.2729 38.9018C11.0854 38.7142 10.98 38.4599 10.98 38.1946C10.98 37.9294 11.0854 37.6751 11.2729 37.4875C11.4604 37.3 11.7148 37.1946 11.98 37.1946H31.56V33.1946H20.42C20.1548 33.1946 19.9004 33.0893 19.7129 32.9018C19.5254 32.7142 19.42 32.4599 19.42 32.1946C19.42 31.9294 19.5254 31.6751 19.7129 31.4875C19.9004 31.3 20.1548 31.1946 20.42 31.1946H31.56V27.3946H16.56C16.2948 27.3946 16.0404 27.2893 15.8529 27.1018C15.6654 26.9142 15.56 26.6599 15.56 26.3946C15.56 26.1294 15.6654 25.8751 15.8529 25.6875C16.0404 25.5 16.2948 25.3946 16.56 25.3946H31.56V21.3946H16.56C16.2948 21.3946 16.0404 21.2893 15.8529 21.1018C15.6654 20.9142 15.56 20.6599 15.56 20.3946C15.56 20.1294 15.6654 19.8751 15.8529 19.6875C16.0404 19.5 16.2948 19.3946 16.56 19.3946H31.34C31.1812 18.819 30.9386 18.2697 30.62 17.7646L25.01 8.66465H15.42L11.42 15.1346C11.2794 15.3614 11.0545 15.523 10.7948 15.584C10.5351 15.6449 10.2618 15.6002 10.035 15.4596C9.80824 15.3191 9.64661 15.0942 9.58566 14.8345C9.52471 14.5747 9.56944 14.3014 9.71 14.0746L14 7.14465C14.0889 6.99868 14.2136 6.87792 14.3625 6.79389C14.5113 6.70986 14.6791 6.66536 14.85 6.66465H15.04V5.82465H14.82C14.5548 5.82465 14.3004 5.71929 14.1129 5.53176C13.9254 5.34422 13.82 5.08986 13.82 4.82465V3.29465C13.82 3.02943 13.9254 2.77508 14.1129 2.58754C14.3004 2.40001 14.5548 2.29465 14.82 2.29465C15.0852 2.29465 15.3396 2.40001 15.5271 2.58754C15.7146 2.77508 15.82 3.02943 15.82 3.29465V3.82465H24.56V2.76465H16.67C16.4048 2.76465 16.1504 2.65929 15.9629 2.47176C15.7754 2.28422 15.67 2.02986 15.67 1.76465C15.67 1.49943 15.7754 1.24508 15.9629 1.05754C16.1504 0.870005 16.4048 0.764648 16.67 0.764648H25.6C25.8652 0.764648 26.1196 0.870005 26.3071 1.05754C26.4946 1.24508 26.6 1.49943 26.6 1.76465V4.82465C26.6 5.08986 26.4946 5.34422 26.3071 5.53176C26.1196 5.71929 25.8652 5.82465 25.6 5.82465H25.42V6.66465H25.6C25.7709 6.66536 25.9387 6.70986 26.0875 6.79389C26.2364 6.87792 26.3611 6.99868 26.45 7.14465L32.36 16.7046C32.9936 17.7362 33.3961 18.8927 33.54 20.0946C33.5753 20.2048 33.5954 20.3191 33.6 20.4346C33.6056 20.4878 33.6056 20.5415 33.6 20.5946C33.6 20.7546 33.6 20.9146 33.6 21.0746V51.7646C33.6048 52.6956 33.4223 53.6181 33.0632 54.4771C32.7042 55.3361 32.1759 56.114 31.51 56.7646H38.63C38.8882 56.775 39.1324 56.8849 39.3114 57.0713C39.4904 57.2577 39.5902 57.5062 39.59 57.7646ZM23.42 6.66465V5.82465H17.12V6.66465H23.42ZM42.67 56.7646H42.05C41.7848 56.7646 41.5304 56.87 41.3429 57.0575C41.1554 57.2451 41.05 57.4994 41.05 57.7646C41.05 58.0299 41.1554 58.2842 41.3429 58.4718C41.5304 58.6593 41.7848 58.7646 42.05 58.7646H42.67C42.9352 58.7646 43.1896 58.6593 43.3771 58.4718C43.5646 58.2842 43.67 58.0299 43.67 57.7646C43.67 57.4994 43.5646 57.2451 43.3771 57.0575C43.1896 56.87 42.9352 56.7646 42.67 56.7646ZM7.5 56.7646H1C0.734784 56.7646 0.48043 56.87 0.292893 57.0575C0.105357 57.2451 0 57.4994 0 57.7646C0 58.0299 0.105357 58.2842 0.292893 58.4718C0.48043 58.6593 0.734784 58.7646 1 58.7646H7.5C7.76522 58.7646 8.01957 58.6593 8.20711 58.4718C8.39464 58.2842 8.5 58.0299 8.5 57.7646C8.5 57.4994 8.39464 57.2451 8.20711 57.0575C8.01957 56.87 7.76522 56.7646 7.5 56.7646Z" fill="#91D5EA"/>
</svg>
