<svg width="150" height="90" viewBox="0 0 125 69" fill="none" xmlns="http://www.w3.org/2000/svg">
<path d="M6.77669 62.5388C4.76486 62.5388 2.32949 62.049 2.32949 59.4813C2.32949 56.5033 6.3002 56.2783 8.20614 56.2783C9.17128 56.2656 10.1359 56.3275 11.0915 56.4636V59.5607C11.0915 62.0226 8.78852 62.5123 6.77669 62.5123V62.5388ZM6.44579 47.953C4.79087 47.9513 3.14791 48.2334 1.58829 48.7869V51.0899C3.10744 50.5612 4.70492 50.2927 6.31344 50.2957C9.23853 50.2957 11.0518 51.2619 11.0518 54.2664C10.1744 54.1484 9.28996 54.0909 8.40468 54.0944C6.80316 54.0944 0 54.0944 0 59.3887C0 63.9682 4.67221 64.683 6.77669 64.683C8.88117 64.683 13.3945 64.0344 13.3945 59.5607V54.7165C13.3945 50.309 10.9592 47.9795 6.41932 47.9795" fill="#90B6CB"/>
<path d="M48.2044 48.2706H45.8617V57.7606C45.8617 61.0431 44.4454 62.5387 41.4277 62.5387C38.4099 62.5387 36.9805 61.0431 36.9805 57.7606V48.2706H34.651V57.6415C34.651 62.1417 37.1128 64.7094 41.4277 64.7094C45.7425 64.7094 48.2044 62.1417 48.2044 57.6415V48.2706Z" fill="#90B6CB"/>
<path d="M57.7076 62.5388C55.6958 62.5388 53.2604 62.049 53.2604 59.4813C53.2604 56.5033 57.2312 56.2783 59.1239 56.2783C60.089 56.2648 61.0538 56.3268 62.0093 56.4636V59.5607C62.0093 62.0226 59.7062 62.5123 57.7076 62.5123V62.5388ZM57.3767 47.953C55.7218 47.9513 54.0789 48.2334 52.5192 48.7869V51.0899C54.0384 50.5612 55.6359 50.2927 57.2444 50.2957C60.1695 50.2957 61.9828 51.2619 61.9828 54.2664C61.1054 54.1484 60.2209 54.0909 59.3356 54.0944C57.7341 54.0944 50.9177 54.0944 50.9177 59.3887C50.9177 63.9682 55.5899 64.683 57.7076 64.683C59.8254 64.683 64.3255 64.0344 64.3255 59.5607V54.7165C64.3255 50.309 61.8901 47.9795 57.3503 47.9795" fill="#90B6CB"/>
<path d="M24.0625 62.7638C20.6874 62.7638 18.9138 60.5137 18.9138 56.265C18.9138 52.0164 20.6345 49.8987 24.0096 49.8987C28.6686 49.8987 29.3039 53.8694 29.3039 56.265C29.3039 58.6607 28.6156 62.7638 24.0096 62.7638H24.0625ZM24.0758 47.7942C19.5359 47.7942 16.4917 51.2752 16.4917 56.4371C16.4917 60.8446 18.7285 63.9947 22.2625 64.7094C21.8137 65.0108 21.3928 65.3519 21.0051 65.7286C20.7801 65.9271 20.5683 66.1257 20.3698 66.2845L20.1448 66.4698L20.8462 67.0919L21.0051 66.9595C21.7614 66.3659 22.691 66.0359 23.6522 66.0198C24.0028 66.029 24.3477 66.1115 24.6645 66.262C24.9813 66.4124 25.2632 66.6275 25.492 66.8933C25.8424 67.2764 26.2703 67.5808 26.7471 67.7861C27.224 67.9915 27.7391 68.0932 28.2582 68.0845C28.8897 68.108 29.5158 67.9617 30.0715 67.661H30.151L30.7598 65.5036L30.2833 65.7154C29.7311 65.9924 29.1269 66.1502 28.5097 66.1786C28.1352 66.1972 27.761 66.136 27.4119 65.9991C27.0627 65.8622 26.7467 65.6527 26.4847 65.3845C26.2186 65.1439 25.9255 64.9351 25.6111 64.7624C29.8068 63.955 31.7128 60.0769 31.7128 56.3312C31.7128 51.3546 28.5891 47.8604 24.1287 47.8604" fill="#90B6CB"/>
<path d="M73.6831 62.8961C70.8374 62.8961 69.408 61.9564 69.408 60.0372V51.2884C70.6639 50.7537 72.0137 50.4747 73.3787 50.4678C76.9523 50.4678 78.4744 52.2546 78.4744 56.4768C78.4744 62.2475 75.7214 62.8961 73.6699 62.8961H73.6831ZM69.408 43.8367H67.0785V59.9048C67.0785 61.1093 67.5285 65.0271 73.6963 65.0271C76.3435 65.0271 80.8304 63.9285 80.8304 56.4768C80.8304 49.7266 76.7803 48.2971 73.4052 48.2971C72.0554 48.2997 70.7148 48.5186 69.4344 48.9457L69.408 43.8367Z" fill="#90B6CB"/>
<path d="M85.9129 55.9871C86.138 52.0164 87.4748 50.5075 90.6513 50.5075C95.125 50.5075 95.3765 55.2062 95.3765 55.9871H85.9129ZM90.6513 48.2972C83.2923 48.2972 83.5438 55.1797 83.5438 56.8872C83.5438 63.6374 87.5145 65.0271 90.9425 65.0271C92.9258 65.0859 94.8973 64.7015 96.7133 63.9021V61.4932C95.0056 62.3831 93.0905 62.799 91.1675 62.6976C87.8321 62.6976 86.2041 61.3741 85.8732 58.0651H97.7324C97.7539 57.6816 97.7539 57.2972 97.7324 56.9136C97.7324 56.2915 97.9575 48.2839 90.5984 48.2839" fill="#90B6CB"/>
<path d="M102.841 43.8763H100.512V64.7755H102.841V43.8763Z" fill="#90B6CB"/>
<path d="M107.898 43.8763H105.568V64.7755H107.898V43.8763Z" fill="#90B6CB"/>
<path d="M117.401 62.8564C115.389 62.8564 112.967 62.3667 112.967 59.8122C112.967 56.8209 116.937 56.5959 118.83 56.5959C119.796 56.5824 120.761 56.6488 121.716 56.7944V59.9048C121.716 62.3667 119.412 62.8564 117.401 62.8564ZM117.083 48.2971C115.423 48.2997 113.776 48.5862 112.212 49.1442V51.4075C113.738 50.8912 115.34 50.6318 116.951 50.6398C119.862 50.6398 121.689 51.606 121.689 54.6106C120.811 54.5016 119.927 54.4485 119.042 54.4517C117.44 54.4517 110.637 54.4517 110.637 59.746C110.637 64.3123 115.309 64.9609 117.414 64.9609C119.518 64.9609 124.032 64.3123 124.032 59.8387V55.0473C124.032 50.6398 121.61 48.2971 117.07 48.2971" fill="#90B6CB"/>
<path d="M59.8652 14.0299C58.3167 15.3534 55.8019 14.0299 55.2327 12.8651C50.7458 3.42806 67.2905 3.20305 63.4918 12.1769C63.3198 9.43708 61.2285 5.63843 58.4623 7.63702C56.9402 8.72235 55.5372 13.4343 59.8652 14.0299Z" fill="#FFDE00"/>
<path d="M58.9121 20.4359C59.2166 19.9329 59.7592 19.1123 60.474 18.1593C58.5612 16.6134 56.2817 15.5876 53.8561 15.1813C46.6029 14.3739 39.2968 27.464 53.234 30.3494C54.3803 30.5761 55.5465 30.687 56.715 30.6803C56.3685 27.1155 57.151 23.5319 58.9519 20.4359" fill="#55B4DC"/>
<path d="M61.8505 31.5672C65.6491 34.2144 66.6021 39.2704 66.8403 39.5086C67.3114 38.6974 67.7015 37.8418 68.0051 36.9542C69.0508 34.0006 69.1158 30.7885 68.1904 27.795C65.7145 28.2912 63.4797 29.6115 61.8505 31.5408" fill="#55B4DC"/>
<path d="M56.7017 30.6804C56.8078 31.8068 57.007 32.9224 57.2973 34.0158C57.5983 35.1503 58.006 36.2538 58.515 37.3115C59.3792 35.2578 60.5095 33.3265 61.8768 31.5672L61.7709 31.4878C60.4474 30.6142 58.7532 30.7201 56.7017 30.6804Z" fill="#93D2DB"/>
<path d="M74.292 8.77527C68.5344 8.77527 63.174 14.546 60.4739 18.1594C63.1905 20.181 65.5028 22.6953 67.2903 25.5714C67.6491 26.2965 67.9501 27.0489 68.1903 27.8215C70.2216 27.4865 72.2736 27.2919 74.3317 27.2391C91.1146 26.3258 83.3055 9.14587 74.6361 8.7885H74.292" fill="#93D2DB"/>
<path d="M60.4739 18.1594C59.7592 19.1256 59.1503 19.933 58.9121 20.4359C57.3753 23.0694 56.5795 26.0696 56.6091 29.1186C56.6091 29.648 56.6091 30.1907 56.6091 30.7333C58.6606 30.7333 60.368 30.6672 61.6651 31.5407L61.7842 31.6201C63.4181 29.6486 65.6797 28.2982 68.1903 27.795C67.9501 27.0224 67.6492 26.27 67.2903 25.5449C65.5028 22.6689 63.1905 20.1545 60.4739 18.1329" fill="#00A2BC"/>
<path d="M60.7517 0C62.6312 0.09265 61.5988 2.17066 61.0165 3.706C60.1429 3.13686 59.8782 1.99859 60.7517 0Z" fill="#FFDE00"/>
<path d="M67.7668 3.9707C69.0904 5.29427 66.9065 6.14136 65.4374 6.85609C65.1859 5.83694 65.7682 4.83102 67.7668 3.9707Z" fill="#FFDE00"/>
<path d="M49.8325 7.57081C51.4341 7.26639 51.7385 9.18557 53.34 8.89438C52.6385 10.218 49.0649 8.89438 49.8325 7.57081Z" fill="#FFDE00"/>
<path d="M54.6503 1.68091C55.9739 2.43534 55.0739 4.06334 56.4769 4.81777C55.1533 5.37367 53.2738 2.17063 54.6503 1.68091Z" fill="#FFDE00"/>
</svg>
