<svg width="64" height="62" viewBox="0 0 64 62" fill="none" xmlns="http://www.w3.org/2000/svg">
<path fill-rule="evenodd" clip-rule="evenodd" d="M32.2107 0.0372094C41.9151 0.490364 50.047 6.53055 55.9824 14.1756C61.7796 21.6426 65.666 30.9387 63.2916 40.0706C60.9826 48.9508 52.8932 54.5752 44.4919 58.3683C36.3786 62.0314 27.3188 63.5134 19.1359 60.0063C10.5253 56.3159 4.11242 48.9422 1.56714 39.9714C-1.15459 30.3788 -0.618036 19.7412 5.463 11.8165C11.6852 3.70783 21.9622 -0.441352 32.2107 0.0372094Z" fill="#91D5EA"/>
<path d="M38.5 18H25.5C21.9101 18 19 20.9101 19 24.5V37.5C19 41.0898 21.9101 44 25.5 44H38.5C42.0898 44 45 41.0898 45 37.5V24.5C45 20.9101 42.0898 18 38.5 18Z" stroke="white" stroke-width="2" stroke-linecap="round" stroke-linejoin="round"/>
<path d="M37.1999 30.181C37.3604 31.2629 37.1756 32.3679 36.6718 33.3387C36.1681 34.3096 35.371 35.0969 34.394 35.5886C33.4171 36.0803 32.3099 36.2515 31.2301 36.0777C30.1502 35.904 29.1526 35.3941 28.3792 34.6207C27.6058 33.8473 27.096 32.8498 26.9222 31.7699C26.7485 30.69 26.9196 29.5829 27.4114 28.6059C27.9031 27.6289 28.6904 26.8319 29.6612 26.3281C30.632 25.8244 31.737 25.6396 32.8189 25.8C33.9225 25.9637 34.9442 26.4779 35.7331 27.2668C36.522 28.0557 37.0363 29.0774 37.1999 30.181Z" stroke="white" stroke-width="2" stroke-linecap="round" stroke-linejoin="round"/>
<path d="M39.15 23.85H39.163" stroke="white" stroke-width="2" stroke-linecap="round" stroke-linejoin="round"/>
</svg>
