<svg width="150" height="90" viewBox="0 0 208 115" fill="none" xmlns="http://www.w3.org/2000/svg">
<path d="M11.3644 105.622C7.99062 105.622 3.90653 104.8 3.90653 100.494C3.90653 95.5001 10.5654 95.1228 13.7616 95.1228C15.3801 95.1015 16.9979 95.2054 18.6004 95.4335V100.627C18.6004 104.756 14.7383 105.577 11.3644 105.577V105.622ZM10.8095 81.1614C8.03424 81.1586 5.27901 81.6315 2.66354 82.5598V86.4219C5.21114 85.5353 7.89011 85.085 10.5876 85.0901C15.4929 85.0901 18.5338 86.7104 18.5338 91.749C17.0624 91.5511 15.5792 91.4547 14.0946 91.4604C11.4088 91.4604 0 91.4604 0 100.339C0 108.019 7.83525 109.217 11.3644 109.217C14.8936 109.217 22.4625 108.13 22.4625 100.627V92.5036C22.4625 85.1123 18.3784 81.2058 10.7651 81.2058" fill="white"/>
<path d="M80.8383 81.6942H76.9095V97.6089C76.9095 103.114 74.5345 105.622 69.4738 105.622C64.4131 105.622 62.0159 103.114 62.0159 97.6089V81.6942H58.1094V97.4091C58.1094 104.956 62.2379 109.262 69.4738 109.262C76.7098 109.262 80.8383 104.956 80.8383 97.4091V81.6942Z" fill="white"/>
<path d="M96.7753 105.622C93.4015 105.622 89.3174 104.8 89.3174 100.494C89.3174 95.5001 95.9762 95.1228 99.1503 95.1228C100.769 95.1002 102.387 95.2041 103.989 95.4335V100.627C103.989 104.756 100.127 105.577 96.7753 105.577V105.622ZM96.2204 81.1614C93.4451 81.1586 90.6899 81.6315 88.0744 82.5598V86.4219C90.622 85.5353 93.301 85.085 95.9984 85.0901C100.904 85.0901 103.945 86.7104 103.945 91.749C102.473 91.5511 100.99 91.4547 99.5054 91.4604C96.8197 91.4604 85.3887 91.4604 85.3887 100.339C85.3887 108.019 93.2239 109.217 96.7753 109.217C100.327 109.217 107.873 108.13 107.873 100.627V92.5036C107.873 85.1123 103.789 81.2058 96.176 81.2058" fill="white"/>
<path d="M40.3526 105.999C34.6926 105.999 31.7183 102.226 31.7183 95.1006C31.7183 87.9756 34.6038 84.4242 40.2638 84.4242C48.0768 84.4242 49.1423 91.0831 49.1423 95.1006C49.1423 99.1181 47.9881 105.999 40.2638 105.999H40.3526ZM40.3748 80.895C32.7615 80.895 27.6564 86.7326 27.6564 95.3891C27.6564 102.78 31.4075 108.063 37.3339 109.262C36.5813 109.767 35.8755 110.339 35.2253 110.971C34.8479 111.304 34.4928 111.637 34.1598 111.903L33.7825 112.214L34.9589 113.257L35.2253 113.035C36.4935 112.04 38.0525 111.486 39.6645 111.459C40.2525 111.475 40.8307 111.613 41.3621 111.865C41.8934 112.118 42.3661 112.478 42.7498 112.924C43.3375 113.567 44.0549 114.077 44.8547 114.421C45.6544 114.766 46.5182 114.936 47.3888 114.922C48.4477 114.961 49.4977 114.716 50.4296 114.211H50.5628L51.5838 110.593L50.7848 110.949C49.8588 111.413 48.8454 111.678 47.8105 111.726C47.1824 111.757 46.5548 111.654 45.9694 111.425C45.3839 111.195 44.8539 110.844 44.4145 110.394C43.9683 109.99 43.4767 109.64 42.9495 109.351C49.9857 107.997 53.182 101.493 53.182 95.2116C53.182 86.8658 47.9437 81.006 40.4636 81.006" fill="white"/>
<path d="M123.566 106.221C118.794 106.221 116.397 104.645 116.397 101.426V86.7546C118.503 85.858 120.766 85.3902 123.055 85.3785C129.048 85.3785 131.601 88.3749 131.601 95.4555C131.601 105.133 126.984 106.221 123.544 106.221H123.566ZM116.397 74.2582H112.49V101.204C112.49 103.224 113.245 109.794 123.588 109.794C128.027 109.794 135.552 107.952 135.552 95.4555C135.552 84.1355 128.76 81.7383 123.1 81.7383C120.836 81.7426 118.588 82.1098 116.441 82.8259L116.397 74.2582Z" fill="white"/>
<path d="M144.075 94.6346C144.453 87.9757 146.694 85.4454 152.021 85.4454C159.524 85.4454 159.945 93.325 159.945 94.6346H144.075ZM152.021 81.7386C139.68 81.7386 140.102 93.2806 140.102 96.1439C140.102 107.464 146.761 109.795 152.51 109.795C155.836 109.893 159.142 109.249 162.187 107.908V103.868C159.323 105.361 156.112 106.058 152.887 105.888C147.294 105.888 144.564 103.668 144.009 98.1194H163.896C163.932 97.4762 163.932 96.8315 163.896 96.1883C163.896 95.1451 164.274 81.7164 151.933 81.7164" fill="white"/>
<path d="M172.464 74.325H168.558V109.373H172.464V74.325Z" fill="white"/>
<path d="M180.943 74.325H177.037V109.373H180.943V74.325Z" fill="white"/>
<path d="M196.88 106.154C193.506 106.154 189.444 105.333 189.444 101.049C189.444 96.0329 196.103 95.6555 199.277 95.6555C200.896 95.6329 202.515 95.7442 204.116 95.9885V101.205C204.116 105.333 200.254 106.154 196.88 106.154ZM196.347 81.7385C193.563 81.7429 190.801 82.2234 188.179 83.1591V86.9546C190.738 86.0888 193.423 85.6538 196.125 85.6672C201.008 85.6672 204.071 87.2876 204.071 92.3261C202.599 92.1434 201.116 92.0544 199.632 92.0597C196.946 92.0597 185.537 92.0597 185.537 100.938C185.537 108.596 193.373 109.684 196.902 109.684C200.431 109.684 208 108.596 208 101.094V93.0586C208 85.6672 203.938 81.7385 196.325 81.7385" fill="white"/>
<path d="M100.394 24.2724C97.7966 26.492 93.5793 24.2724 92.6249 22.3192C85.1004 6.49329 112.846 6.11596 106.475 21.165C106.187 16.5704 102.68 10.2001 98.0407 13.5517C95.4882 15.3718 93.1354 23.2736 100.394 24.2724Z" fill="white"/>
<path d="M98.795 35.0155C99.3055 34.172 100.216 32.7958 101.414 31.1977C98.2065 28.6052 94.3837 26.8849 90.3161 26.2036C78.1526 24.8496 65.9003 46.8016 89.2729 51.6404C91.1952 52.0206 93.1509 52.2065 95.1104 52.1953C94.5294 46.2171 95.8416 40.2074 98.8616 35.0155" fill="white"/>
<path d="M103.723 53.6822C110.093 58.1215 111.691 66.6004 112.091 66.9999C112.881 65.6395 113.535 64.2046 114.044 62.7161C115.797 57.763 115.906 52.3763 114.355 47.3563C110.203 48.1883 106.455 50.4025 103.723 53.6378" fill="white"/>
<path d="M95.088 52.1953C95.266 54.0842 95.6 55.955 96.0868 57.7887C96.5917 59.6913 97.2754 61.5418 98.1289 63.3156C99.5782 59.8715 101.474 56.6327 103.767 53.6825L103.589 53.5493C101.37 52.0843 98.5284 52.2619 95.088 52.1953Z" fill="white"/>
<path d="M124.587 15.4609C114.932 15.4609 105.942 25.1385 101.414 31.198C105.97 34.5882 109.847 38.8048 112.845 43.6279C113.447 44.8439 113.952 46.1056 114.354 47.4012C117.761 46.8394 121.202 46.5131 124.653 46.4246C152.798 44.8931 139.702 16.0824 125.164 15.4831H124.587" fill="white"/>
<path d="M101.414 31.198C100.215 32.8183 99.1944 34.1722 98.7949 35.0157C96.2177 39.432 94.8832 44.4633 94.9327 49.5764C94.9327 50.4642 94.9327 51.3743 94.9327 52.2843C98.3731 52.2843 101.236 52.1733 103.412 53.6383L103.611 53.7715C106.351 50.4652 110.144 48.2006 114.354 47.3568C113.952 46.0612 113.447 44.7994 112.845 43.5834C109.847 38.7603 105.97 34.5438 101.414 31.1536" fill="#EBEBEB"/>
<path d="M101.88 0.744629C105.032 0.900002 103.301 4.3848 102.324 6.95956C100.859 6.00512 100.415 4.09625 101.88 0.744629Z" fill="white"/>
<path d="M113.644 7.40344C115.864 9.62306 112.202 11.0436 109.738 12.2422C109.316 10.5331 110.293 8.84619 113.644 7.40344Z" fill="white"/>
<path d="M83.5686 13.441C86.2543 12.9304 86.7649 16.1489 89.4506 15.6606C88.2742 17.8802 82.2812 15.6606 83.5686 13.441Z" fill="white"/>
<path d="M91.6481 3.56335C93.8677 4.82854 92.3583 7.55867 94.7111 8.82385C92.4915 9.75609 89.3397 4.38461 91.6481 3.56335Z" fill="white"/>
</svg>
