<svg width="100" height="33" viewBox="0 0 100 33" fill="none" xmlns="http://www.w3.org/2000/svg">
<path d="M42.4423 28.3335C42.0911 28.6826 41.6961 29.0317 41.2572 29.2935C40.555 29.6863 39.7649 29.9045 39.0188 29.9045C38.4043 29.9045 37.7899 29.7736 37.2632 29.5554C36.7365 29.2935 36.2537 28.9881 35.8587 28.5953C35.4636 28.2025 35.1125 27.7225 34.8931 27.1988C34.6736 26.6751 34.5419 26.1078 34.5419 25.5405C34.5419 24.9295 34.6736 24.3186 34.937 23.7949C35.2003 23.2276 35.5075 22.7475 35.9464 22.3548C36.3415 21.962 36.8243 21.6565 37.3948 21.3947C37.9215 21.1765 38.4921 21.0456 39.1066 21.0456C39.5016 21.0456 39.8966 21.0892 40.2916 21.2201C40.6427 21.3074 40.9939 21.482 41.3011 21.6565C41.5206 21.7875 41.74 21.9184 41.9595 22.0929C42.135 22.2675 42.3545 22.3984 42.4862 22.6166C42.8373 23.0094 43.364 23.2276 43.9345 23.2276H45.2952C45.0757 22.6166 44.7685 22.0493 44.3735 21.5693C43.9784 21.0456 43.4956 20.5655 42.9251 20.1728C42.7934 20.0855 42.7056 20.0419 42.5739 19.9546L42.53 19.9109C42.4862 19.8673 42.4423 19.8673 42.3545 19.8237C41.9595 19.6055 41.5644 19.4309 41.1255 19.2563C40.4672 19.0381 39.7649 18.9072 39.0627 18.9072C39.0627 18.9072 39.0627 18.9072 39.0188 18.9072C38.141 18.9072 37.2632 19.0818 36.4731 19.4309C36.2976 19.5182 36.122 19.6055 35.9464 19.6927C35.332 19.9982 34.8053 20.4346 34.3225 20.871C33.708 21.482 33.2252 22.1802 32.8741 23.0094C32.523 23.7949 32.3474 24.6677 32.3474 25.5405C32.3474 26.4569 32.523 27.2861 32.8741 28.0716C33.2252 28.8571 33.708 29.5554 34.3225 30.1663C34.937 30.7337 35.6392 31.2137 36.4292 31.5628C37.2193 31.9119 38.0532 32.0865 38.9749 32.0865C39.6772 32.0865 40.3794 31.9556 41.0378 31.781C41.6961 31.5628 42.3106 31.2573 42.8812 30.8646C43.4517 30.4718 43.9345 29.9918 44.3296 29.4681C44.7246 28.9444 45.0318 28.3771 45.2513 27.8098H43.8907C43.3201 27.7225 42.7934 27.9407 42.4423 28.3335Z" fill="white"/>
<path d="M57.9357 27.8971C57.6285 27.8098 56.3117 27.4607 55.3461 28.508C55.1706 28.7262 54.9072 28.9881 54.6439 29.1626C54.2928 29.4245 53.8977 29.599 53.5027 29.7736C53.0638 29.9481 52.6249 30.0354 52.0982 30.0354C51.7032 30.0354 51.3082 29.9918 50.9132 29.8609C50.5621 29.7736 50.2109 29.599 49.9476 29.4245C49.6404 29.2499 49.4209 29.0317 49.2453 28.7699C49.0698 28.508 48.982 28.2025 48.982 27.8971C48.982 27.5479 49.1137 27.2425 49.2892 27.0243C49.4648 26.7624 49.7281 26.5879 50.0354 26.4133C50.3426 26.2387 50.6498 26.1515 51.001 26.0642C51.3521 26.0205 51.6593 25.9769 51.9666 25.9769C52.3616 25.9769 52.7566 26.0205 53.1516 26.0642C53.5466 26.1515 53.9416 26.1951 54.2928 26.2824C54.6439 26.3697 54.9511 26.4133 55.2145 26.5006C55.9167 26.7188 57.014 26.7188 57.4968 26.3697C57.7162 26.1951 57.9357 25.9769 57.9796 25.5405V24.4059V24.1877C57.9796 23.2276 57.804 22.3984 57.4968 21.7438C57.1895 21.0892 56.7945 20.5219 56.3117 20.0855C55.8289 19.6491 55.2584 19.3436 54.6 19.1254C53.9416 18.9072 53.2394 18.8199 52.4932 18.8199C51.8788 18.8199 51.2204 18.9072 50.6498 19.0818C50.0354 19.2563 49.5087 19.5182 49.0259 19.9109C48.5431 20.2601 48.1481 20.7401 47.8408 21.2638C47.5336 21.7875 47.358 22.4857 47.3141 23.1839H48.192C48.8503 23.1839 49.2892 22.8348 49.4648 22.573C49.6403 22.3548 50.0793 21.7002 50.5621 21.3947C50.8693 21.2201 51.1765 21.0456 51.5715 20.9583C52.3177 20.7837 53.1077 20.7837 53.8539 21.0019C54.2489 21.1329 54.5561 21.3074 54.8633 21.5256C55.1706 21.7438 55.39 22.0493 55.6095 22.3984C55.785 22.7475 55.8728 23.1839 55.8728 23.6203C55.8728 24.1004 55.8289 24.5368 55.8289 24.5368L55.6973 24.4931C54.995 24.2749 54.2928 24.1004 53.5905 24.0131C52.8883 23.9258 52.2738 23.8822 51.6593 23.8822C50.9571 23.8822 50.3426 23.9695 49.772 24.1004C49.2014 24.2313 48.6748 24.4931 48.2797 24.7986C47.8408 25.1041 47.5336 25.5405 47.2703 26.0642C47.0508 26.5879 46.9191 27.1988 46.9191 27.8971C46.9191 28.5953 47.0508 29.2063 47.358 29.7299C47.6214 30.2536 48.0164 30.69 48.4992 31.0391C48.982 31.3883 49.5087 31.6501 50.0793 31.8247C51.396 32.2174 52.7127 32.1738 53.9416 31.7374C54.6 31.4755 55.2145 31.0828 55.6973 30.4718L55.8728 30.2973V30.6464C55.8728 31.2573 56.3995 31.781 57.014 31.781H58.0235V31.3883C58.0235 31.2573 58.0235 31.1264 58.0235 30.9955V27.8971H57.9357Z" fill="white"/>
<path d="M30.7673 27.8971C30.4601 27.8098 29.1434 27.4607 28.1778 28.508C28.0022 28.7262 27.7389 28.9881 27.4755 29.1626C27.1244 29.4245 26.7294 29.599 26.3344 29.7736C25.8955 29.9481 25.4566 30.0354 24.9299 30.0354C24.5349 30.0354 24.1399 29.9918 23.7448 29.8609C23.3937 29.7736 23.0426 29.599 22.7792 29.4245C22.472 29.2499 22.2526 29.0317 22.077 28.7699C21.9014 28.508 21.8137 28.2025 21.8137 27.8971C21.8137 27.5479 21.9453 27.2425 22.1209 27.0243C22.2965 26.7624 22.5598 26.5879 22.867 26.4133C23.1743 26.2387 23.4815 26.1515 23.8326 26.0642C24.1837 26.0205 24.491 25.9769 24.7982 25.9769C25.1932 25.9769 25.5882 26.0205 25.9833 26.0642C26.3783 26.1515 26.7733 26.1951 27.1244 26.2824C27.4755 26.3697 27.7828 26.4133 28.0461 26.5006C28.7484 26.7188 29.8456 26.7188 30.3284 26.3697C30.5479 26.1951 30.7673 25.9769 30.8112 25.5405V24.4059V24.1877C30.8112 23.2276 30.6357 22.3984 30.3284 21.7438C30.0212 21.0892 29.6262 20.5219 29.1434 20.0855C28.6606 19.6491 28.09 19.3436 27.4317 19.1254C26.7733 18.9072 26.071 18.8199 25.3249 18.8199C24.7104 18.8199 24.0521 18.9072 23.4815 19.0818C22.867 19.2563 22.3403 19.5182 21.8575 19.9109C21.3747 20.2601 20.9797 20.7401 20.6725 21.2638C20.3653 21.7875 20.1897 22.4857 20.1458 23.1839H21.0236C21.682 23.1839 22.1209 22.8348 22.2965 22.573C22.472 22.3548 22.9109 21.7002 23.3937 21.3947C23.701 21.2201 24.0082 21.0456 24.4032 20.9583C25.1493 20.7837 25.9394 20.7837 26.6855 21.0019C27.0805 21.1329 27.3878 21.3074 27.695 21.5256C28.0022 21.7438 28.2217 22.0493 28.4411 22.3984C28.6167 22.7475 28.7045 23.1839 28.7045 23.6203C28.7045 24.1004 28.6606 24.5368 28.6606 24.5368L28.5289 24.4931C27.8267 24.2749 27.1244 24.1004 26.4222 24.0131C25.7199 23.9258 25.1055 23.8822 24.491 23.8822C23.7887 23.8822 23.1743 23.9695 22.6037 24.1004C22.0331 24.2313 21.5064 24.4931 21.1114 24.7986C20.6725 25.1041 20.3653 25.5405 20.1019 26.0642C19.8825 26.5879 19.7508 27.1988 19.7508 27.8971C19.7508 28.5953 19.8825 29.2063 20.1897 29.7299C20.453 30.2536 20.8481 30.69 21.3309 31.0391C21.8137 31.3883 22.3403 31.6501 22.9109 31.8247C24.2276 32.2174 25.5444 32.1738 26.7733 31.7374C27.4317 31.4755 28.0461 31.0828 28.5289 30.4718L28.7045 30.2973V30.6464C28.7045 31.2573 29.2312 31.781 29.8456 31.781H30.8551V31.3883C30.8551 31.2573 30.8551 31.1264 30.8551 30.9955V27.8971H30.7673Z" fill="white"/>
<path d="M18.0829 25.4532C18.0829 21.2201 16.4151 19.0818 12.9916 18.9945C11.8944 18.9508 10.2265 19.2563 8.9098 20.5655L8.82202 20.6528L8.77813 20.5655C8.55868 20.26 8.25144 20.0418 7.94421 19.78C6.75916 18.8199 4.2135 18.6017 2.63344 19.3436C1.09727 20.0855 0.482797 21.5692 0.307235 22.3548C0.0877813 23.1839 0 24.1876 0 25.3223V29.7299C0 30.9082 0.921704 31.8683 2.10675 31.9119V24.0131C2.10675 22.3984 3.42347 21.0456 5.09132 21.0456C6.71527 21.0456 8.07588 22.3548 8.07588 24.0131V29.6863C8.07588 30.8645 8.99758 31.8246 10.1826 31.8683V23.9258C10.1826 22.3548 11.4555 21.0456 13.0794 21.0456C14.7034 21.0456 15.9762 22.3111 15.9762 23.9258V29.7299C15.9762 30.9082 16.9418 31.9119 18.1268 31.9555C18.0829 31.2573 18.0829 26.6751 18.0829 25.4532Z" fill="white"/>
<path d="M59.5157 25.4096C59.5157 29.6427 61.1836 31.781 64.6071 31.8683C65.7043 31.9119 67.3722 31.6065 68.6889 30.2973L68.7767 30.21L68.8645 30.2973C69.0839 30.6027 69.3911 30.8209 69.6984 31.0828C70.8834 32.0429 73.4291 32.2611 75.0091 31.5192C76.5453 30.7773 77.1598 29.2935 77.3354 28.508C77.5109 27.6789 77.6426 26.7188 77.6426 25.5405V21.1329C77.6426 19.9546 76.7209 18.9945 75.5358 18.9509V26.8497C75.5358 28.4644 74.2191 29.8172 72.5513 29.8172C70.9273 29.8172 69.5667 28.508 69.5667 26.8497V21.1765C69.5667 19.9982 68.645 19.0381 67.46 18.9945V26.937C67.46 28.508 66.1871 29.8172 64.5632 29.8172C62.9831 29.8172 61.6664 28.5517 61.6664 26.937V21.1329C61.6664 19.9546 60.7008 18.9509 59.5157 18.9072C59.5157 19.6055 59.5157 24.1877 59.5157 25.4096Z" fill="white"/>
<path d="M99.8512 0.447521C99.8073 0.229321 99.6317 0.0547609 99.4123 0.0111209C99.1928 -0.032519 98.9734 0.0547609 98.8417 0.229321C95.1988 5.68432 86.5523 7.34264 86.4646 7.38628C85.1917 7.60448 84.0506 8.04088 84.0067 8.08452C81.6366 9.04459 80.0126 14.4996 79.442 16.8125C77.862 15.1105 76.7208 12.9722 76.1502 10.7029C76.1941 10.572 76.238 10.4411 76.1941 10.3102C76.1064 10.0483 75.7991 9.87375 75.4919 9.96103C75.053 10.092 74.6141 10.092 74.2191 9.87375C74.3068 9.56827 74.4824 9.30643 74.7457 9.08823C74.9213 8.95731 74.9652 8.69547 74.8774 8.47727L73.824 5.85888C74.4824 5.50976 75.1408 5.42248 75.843 5.5534C78.2131 5.9898 80.1443 8.87003 80.1443 8.91367C80.2321 9.08823 80.4076 9.17551 80.5832 9.17551C80.671 9.17551 80.8027 9.13187 80.8904 9.08823C81.1538 8.91367 81.1977 8.6082 81.066 8.34636C80.9782 8.21544 78.8715 5.02972 76.0625 4.50604C74.9652 4.28784 73.9118 4.50604 72.9462 5.117C72.9023 5.117 72.8584 5.16064 72.8146 5.16064C72.7707 5.20428 72.7268 5.20428 72.7268 5.24792C72.7268 5.24792 72.6829 5.24792 72.6829 5.29156C72.6829 5.29156 72.6829 5.3352 72.639 5.3352C71.7612 6.03344 71.2345 7.12444 71.2345 8.30272C71.2345 9.78647 72.0684 11.1393 73.429 11.7503C73.5168 11.7939 73.5607 11.7939 73.6485 11.7939C73.7802 11.7939 73.9118 11.7503 73.9996 11.663C74.1752 11.5321 74.2191 11.3139 74.1752 11.0957C74.1752 11.052 74.1752 11.0084 74.1313 10.9648C74.3946 11.052 74.658 11.0957 74.9213 11.0957C74.9652 11.0957 75.053 11.0957 75.0969 11.0957C76.238 15.6342 79.7054 19.5618 83.9628 21.1765C84.8845 23.5767 86.2012 25.9769 87.474 28.2898C87.6057 28.5517 87.7374 28.7699 87.869 29.0317C85.6306 26.9806 83.4361 23.9695 82.0316 21.5693C81.8999 21.3074 81.5488 21.2201 81.2855 21.3511C81.0221 21.482 80.9343 21.8311 81.066 22.0929C82.9972 25.4532 86.289 29.6427 89.2297 31.4755C89.3174 31.5192 89.4052 31.5628 89.5369 31.5628C89.6686 31.5628 89.8002 31.5192 89.888 31.4319C90.0636 31.2573 90.1075 30.9955 90.0197 30.7773C89.493 29.7736 88.9663 28.7699 88.4396 27.7661C87.1668 25.4096 85.8501 23.0094 84.9284 20.6092C84.9284 20.5655 84.8845 20.5655 84.8845 20.5219C84.8845 18.9945 84.7967 17.6853 84.5334 16.4634C84.9723 16.3761 85.4112 16.3325 85.7184 16.3325C90.3269 16.3325 94.0576 12.8849 94.2332 12.754C101.124 6.77532 99.8951 0.70936 99.8512 0.447521ZM72.3318 8.34636C72.3318 7.69176 72.5512 7.0808 72.9462 6.60076L73.7363 8.6082C73.3851 9.00095 73.1657 9.48099 73.0779 10.0047C73.0779 10.0483 73.0779 10.0483 73.0779 10.092C73.0779 10.1356 73.034 10.1792 73.034 10.2229C72.5951 9.69919 72.3318 9.04459 72.3318 8.34636ZM83.7872 19.9982C82.6022 19.4745 81.5049 18.7327 80.4954 17.9035C81.1099 17.4235 82.2949 17.0307 83.4361 16.7689C83.6994 17.7289 83.7872 18.7763 83.7872 19.9982ZM93.4871 12.0558C93.4432 12.0994 89.9319 15.3724 85.7184 15.3724C85.3234 15.3724 84.6211 15.4597 83.7872 15.6342C82.7777 15.8524 81.5927 16.1579 80.6271 16.5943C81.461 13.5831 82.9094 9.69919 84.4456 9.08823C84.4456 9.08823 85.499 8.65183 86.6401 8.47727C88.7908 8.12815 95.2427 6.208 98.8417 2.01856C98.8417 4.026 98.0956 7.99724 93.4871 12.0558Z" fill="white"/>
</svg>
