<svg width="57" height="62" viewBox="0 0 57 62" fill="none" xmlns="http://www.w3.org/2000/svg">
<path fill-rule="evenodd" clip-rule="evenodd" d="M27.0866 61.946C36.2087 62.4958 45.3248 58.8309 51.0766 51.6269C56.8783 44.3605 58.0264 34.6422 56.2057 25.4753C54.3162 15.9621 49.8981 6.52851 41.2821 2.31305C32.6615 -1.90466 22.4168 0.05831 14.1091 4.87909C6.51076 9.28823 1.92239 17.2933 0.396792 26.0378C-1.03107 34.2222 1.49027 42.2994 6.42287 48.9357C11.5579 55.8443 18.5727 61.4329 27.0866 61.946Z" fill="#91D5EA"/>
<path d="M37 16H32.6364C30.7075 16 28.8577 16.7638 27.4938 18.1235C26.1299 19.4831 25.3636 21.3272 25.3636 23.25V27.6H21V33.4H25.3636V45H31.1818V33.4H35.5455L37 27.6H31.1818V23.25C31.1818 22.8654 31.3351 22.4966 31.6078 22.2247C31.8806 21.9528 32.2506 21.8 32.6364 21.8H37V16Z" stroke="white" stroke-width="1.5" stroke-linecap="round" stroke-linejoin="round"/>
</svg>
